<svg id="Layer_1" data-name="Layer 1" xmlns="http://www.w3.org/2000/svg" xmlns:xlink="http://www.w3.org/1999/xlink" viewBox="0 0 1158 150"><defs><style>.cls-1{fill:none;}.cls-2{fill:#ce6111;}.cls-3{fill:#ebb583;}.cls-4{clip-path:url(#clip-path);}.cls-5{clip-path:url(#clip-path-2);}</style><clipPath id="clip-path"><circle class="cls-1" cx="47.4" cy="62.74" r="17.59"/></clipPath><clipPath id="clip-path-2"><path class="cls-1" d="M31.46,78.5s19.82-3.66,86.25,68.84H0S6.49,97.44,31.46,78.5Z"/></clipPath></defs><circle class="cls-2" cx="132.3" cy="21.32" r="17.59"/><path class="cls-2" d="M158.58,84.93l-6.4,24.17h29.25s-4-30.2-4.79-34.62C168.78,38.5,144,43,144,43L132.11,59.78,120.3,43S95.55,38.5,87.77,74.48c-.84,4.42-4.83,34.62-4.83,34.62h29.25l-6.14-24.17Z"/><polygon class="cls-2" points="92.37 121.09 119.57 121.09 130.98 130.41 133.72 130.41 145.31 121.24 172.11 121.24 181.36 112.28 83.01 112.28 92.37 121.09"/><polygon class="cls-2" points="101.51 130.23 163.04 130.23 146.88 147.34 117.71 147.34 101.51 130.23"/><circle class="cls-3" cx="217.15" cy="62.74" r="17.59"/><path class="cls-3" d="M233.13,78.5s-19.82-3.66-86.25,68.84H264.42S258.06,97.44,233.13,78.5Z"/><g class="cls-4"><rect class="cls-2" x="15.22" y="54.6" width="48.73" height="3.03" transform="translate(-28.12 44.61) rotate(-45.15)"/><rect class="cls-2" x="18.96" y="58.35" width="48.73" height="3.03" transform="translate(-29.67 48.37) rotate(-45.15)"/><rect class="cls-2" x="22.74" y="62.12" width="48.73" height="3.03" transform="translate(-31.23 52.15) rotate(-45.15)"/><rect class="cls-2" x="26.52" y="65.93" width="48.73" height="3.03" transform="translate(-32.82 55.96) rotate(-45.15)"/><rect class="cls-2" x="30.36" y="69.67" width="48.73" height="3.03" transform="translate(-34.33 59.78) rotate(-45.15)"/><rect class="cls-2" x="34.14" y="73.48" width="48.73" height="3.03" transform="translate(-35.92 63.59) rotate(-45.15)"/><rect class="cls-2" x="11.34" y="50.8" width="48.73" height="3.03" transform="translate(-26.57 40.74) rotate(-45.15)"/></g><g class="cls-5"><rect class="cls-2" x="-29.39" y="98.66" width="94.95" height="3.03" transform="translate(-65.8 42.51) rotate(-45.26)"/><rect class="cls-2" x="-25.58" y="102.41" width="94.95" height="3.03" transform="translate(-67.34 46.33) rotate(-45.26)"/><rect class="cls-2" x="-21.8" y="106.16" width="94.95" height="3.03" transform="translate(-68.88 50.12) rotate(-45.26)"/><rect class="cls-2" x="-17.98" y="109.91" width="94.95" height="3.03" transform="translate(-70.42 53.94) rotate(-45.26)"/><rect class="cls-2" x="-14.2" y="113.7" width="94.95" height="3.03" transform="translate(-71.99 57.75) rotate(-45.26)"/><rect class="cls-2" x="-10.47" y="117.51" width="94.95" height="3.03" transform="translate(-73.59 61.52) rotate(-45.26)"/><rect class="cls-2" x="-33.21" y="94.87" width="94.95" height="3.03" transform="translate(-64.24 38.67) rotate(-45.26)"/><rect class="cls-2" x="-2.82" y="125.02" width="94.95" height="3.03" transform="translate(-76.66 69.19) rotate(-45.26)"/><rect class="cls-2" x="0.96" y="128.77" width="94.95" height="3.03" transform="translate(-78.2 72.98) rotate(-45.26)"/><rect class="cls-2" x="4.8" y="132.54" width="94.95" height="3.03" transform="translate(-79.74 76.83) rotate(-45.26)"/><rect class="cls-2" x="8.59" y="136.31" width="94.95" height="3.03" transform="translate(-81.3 80.64) rotate(-45.26)"/><rect class="cls-2" x="12.38" y="140.04" width="94.95" height="3.03" transform="translate(-82.83 84.43) rotate(-45.26)"/><rect class="cls-2" x="16.2" y="143.79" width="94.95" height="3.03" transform="translate(-84.36 88.25) rotate(-45.26)"/><rect class="cls-2" x="-6.6" y="121.18" width="94.95" height="3.03" transform="translate(-75.05 65.37) rotate(-45.26)"/><rect class="cls-2" x="23.82" y="151.31" width="94.95" height="3.03" transform="translate(-87.44 95.89) rotate(-45.26)"/><rect class="cls-2" x="27.51" y="155.16" width="94.95" height="3.03" transform="translate(-89.09 99.66) rotate(-45.26)"/><rect class="cls-2" x="31.36" y="158.86" width="94.95" height="3.03" transform="translate(-90.58 103.49) rotate(-45.26)"/><rect class="cls-2" x="35.18" y="162.65" width="94.95" height="3.03" transform="translate(-92.14 107.32) rotate(-45.26)"/><rect class="cls-2" x="38.96" y="166.37" width="94.95" height="3.03" transform="translate(-93.66 111.1) rotate(-45.26)"/><rect class="cls-2" x="42.75" y="170.15" width="94.95" height="3.03" transform="translate(-95.22 114.91) rotate(-45.26)"/><rect class="cls-2" x="20" y="147.57" width="94.95" height="3.03" transform="translate(-85.92 92.08) rotate(-45.26)"/></g><path d="M330,53.38a103.77,103.77,0,0,0-16.85-7.62v-.51h16.57a.38.38,0,0,0,.38-.37v-1.5a.38.38,0,0,0-.38-.38H313.1V38.6a82.83,82.83,0,0,0,12-2.22.36.36,0,0,0,.25-.23.34.34,0,0,0,0-.34l-.9-1.28a.37.37,0,0,0-.38-.16,123.82,123.82,0,0,1-26.94,2.68.33.33,0,0,0-.31.17.34.34,0,0,0,0,.35l.67,1.6a.35.35,0,0,0,.35.23c5.08-.06,9.4-.23,12.86-.51v4.17H294.21a.38.38,0,0,0-.38.38v1.5a.38.38,0,0,0,.38.38h13.94a27.51,27.51,0,0,1-14.27,7.86.36.36,0,0,0-.28.24.38.38,0,0,0,.07.37L294.72,55a.38.38,0,0,0,.37.13,30.41,30.41,0,0,0,4.41-1.36.36.36,0,0,0-.1.26V70.68a.38.38,0,0,0,.37.38h1.67a.38.38,0,0,0,.37-.38V68.63h20v2.05a.38.38,0,0,0,.38.38h1.66a.38.38,0,0,0,.38-.38V54.06a.38.38,0,0,0-.38-.38H313V48.2a123.9,123.9,0,0,1,15.76,7.11.36.36,0,0,0,.49-.13l.8-1.28a.33.33,0,0,0,.05-.29A.38.38,0,0,0,330,53.38Zm-8.14,9v4.11l-20,0V62.36Zm-20-2.28v-4h20v4Zm8.81-13.9v7.5H299.79A30.28,30.28,0,0,0,310.62,46.18Z"/><path d="M378.83,57l-.08,0a19.64,19.64,0,0,1-8.07-7.78h7.53a.38.38,0,0,0,.37-.38V47.28a.38.38,0,0,0-.37-.38H371.1V41.67h5.79a.38.38,0,0,0,.38-.37V39.86a.38.38,0,0,0-.38-.38H371.1V34.74a.37.37,0,0,0-.38-.37h-1.66a.36.36,0,0,0-.37.37v4.74h-8.11V34.74a.37.37,0,0,0-.38-.37h-1.66a.37.37,0,0,0-.38.37v4.74h-5.82a.38.38,0,0,0-.38.38V41.3a.38.38,0,0,0,.38.37h5.82V47h-7.1a.37.37,0,0,0-.38.37v1.47a.38.38,0,0,0,.38.38h7.4A23,23,0,0,1,350,57.28a.37.37,0,0,0-.19.25.39.39,0,0,0,.08.31l1,1.21a.36.36,0,0,0,.48.09,27.53,27.53,0,0,0,4.55-3.33V67.06a3.39,3.39,0,0,0,.8,2.53l.08.07a5.17,5.17,0,0,0,2.74.8h13.31a3.32,3.32,0,0,0,3.07-1.76,12.15,12.15,0,0,0,1-4.19.37.37,0,0,0-.23-.37L375,63.46a.38.38,0,0,0-.33,0,.34.34,0,0,0-.18.28c-.4,4.18-1.15,4.4-1.35,4.4-.81.12-3.28.19-7.34.19a65.2,65.2,0,0,1-7.16-.18c-.12,0-.42-.13-.42-.89V62.68h14a.38.38,0,0,0,.37-.38V55.37a23.39,23.39,0,0,0,5,3.65.38.38,0,0,0,.49-.12l.84-1.22a.36.36,0,0,0,.15-.3v0A.38.38,0,0,0,378.83,57Zm-8.61-1.25v4.69l-12,0V55.74Zm-2.05-6.65a20.55,20.55,0,0,0,2.66,4.4H358.35a19.14,19.14,0,0,0,2.92-4.4Zm-7.59-2.19V41.67h8.11v5.2Z"/><path d="M349.13,41.33a.34.34,0,0,0,.26.12h0a.41.41,0,0,0,.27-.13l1.05-1.23a.37.37,0,0,0,.19-.33v0a.36.36,0,0,0-.22-.34,34.15,34.15,0,0,0-6.16-4.81.38.38,0,0,0-.46.05l-1.15,1.12a.38.38,0,0,0,.06.59A35.46,35.46,0,0,1,349.13,41.33Z"/><path d="M349.64,55.39l-1.5-.83a.37.37,0,0,0-.34,0,.33.33,0,0,0-.21.26,49.75,49.75,0,0,1-5.65,14.63.37.37,0,0,0,.1.49L343.48,71a.44.44,0,0,0,.22.07h.08a.36.36,0,0,0,.25-.18,53.71,53.71,0,0,0,5.79-15.07A.36.36,0,0,0,349.64,55.39Z"/><path d="M348.55,51.86a.39.39,0,0,0,.27.11h0a.37.37,0,0,0,.27-.13l1.15-1.35a.37.37,0,0,0,0-.51,59.14,59.14,0,0,0-6.73-5.5.37.37,0,0,0-.49.05l-1.12,1.21a.36.36,0,0,0-.09.3.38.38,0,0,0,.16.27A44.74,44.74,0,0,1,348.55,51.86Z"/><path d="M427.11,54.83h-4.52V51a.37.37,0,0,0-.37-.38h-1.66a.38.38,0,0,0-.38.38v3.84H404.57a.38.38,0,0,0-.38.38v1.63a.38.38,0,0,0,.38.37h15.61V67.82a.71.71,0,0,1-.22.61,6.32,6.32,0,0,1-2.22.22h-4.25a.37.37,0,0,0-.31.16.37.37,0,0,0,0,.35l.71,1.73a.36.36,0,0,0,.34.23H417l.71,0a15.4,15.4,0,0,0,2.93-.29,2.65,2.65,0,0,0,1.41-1,3,3,0,0,0,.55-1.81V57.21h4.52a.38.38,0,0,0,.38-.37V55.21A.38.38,0,0,0,427.11,54.83Z"/><path d="M414.48,65.57a.38.38,0,0,0,0-.37,31.74,31.74,0,0,0-5.05-7,.39.39,0,0,0-.49-.05l-1.34,1a.41.41,0,0,0-.15.26.34.34,0,0,0,.09.29,37.75,37.75,0,0,1,4.68,6.81.39.39,0,0,0,.24.19h.09a.36.36,0,0,0,.2-.06l1.45-.9A.39.39,0,0,0,414.48,65.57Z"/><path d="M406.21,52.63,405.86,51a.39.39,0,0,0-.23-.27.37.37,0,0,0-.35.05c-1.31.93-2.76,1.81-4.08,2.59V46.15h4.2a.37.37,0,0,0,.37-.38V44.21a.37.37,0,0,0-.37-.38h-4.2v-9a.38.38,0,0,0-.37-.38h-1.67a.38.38,0,0,0-.37.38v8.93h-3.24c.27-1.49.49-3.2.66-5.1a.34.34,0,0,0-.1-.28.36.36,0,0,0-.27-.12h-1.73a.37.37,0,0,0-.37.35,43.47,43.47,0,0,1-2.89,13.51.37.37,0,0,0,.18.46l1.53.8a.37.37,0,0,0,.31,0,.4.4,0,0,0,.22-.22,47.24,47.24,0,0,0,2-7h3.67v8.62c-2.64,1.5-5.38,2.89-8.16,4.12a.38.38,0,0,0-.19.49l.64,1.53a.38.38,0,0,0,.51.2c2.71-1.3,5-2.49,7.2-3.7v13.5a.38.38,0,0,0,.37.37h1.67a.38.38,0,0,0,.37-.37V56.11l2.32-1.47c.89-.56,1.74-1.09,2.53-1.61A.38.38,0,0,0,406.21,52.63Z"/><path d="M404.92,41.93h9.67v5.64h-7.91a.38.38,0,0,0-.38.38v1.5a.38.38,0,0,0,.38.38h18.19a.38.38,0,0,0,.38-.38V48a.38.38,0,0,0-.38-.38H417V41.93h9.63a.38.38,0,0,0,.38-.38V40a.38.38,0,0,0-.38-.38H417V34.77a.38.38,0,0,0-.38-.37H415a.37.37,0,0,0-.37.37v4.84h-9.67a.38.38,0,0,0-.38.38v1.56A.38.38,0,0,0,404.92,41.93Z"/><path d="M474.55,34.4h-1.67a.38.38,0,0,0-.37.37V67.55a2,2,0,0,1-.29.83.86.86,0,0,1-.78.49h-6.39a.36.36,0,0,0-.31.17.36.36,0,0,0,0,.35l.67,1.63a.38.38,0,0,0,.35.23h5.63c2.95,0,3.57-1.77,3.57-3.25V34.77A.38.38,0,0,0,474.55,34.4Z"/><rect x="464.45" y="37.21" width="2.41" height="26.33" rx="0.38"/><path d="M459.55,54h-11.1c.2-1.92.3-3.87.31-5.81h10.69a.38.38,0,0,0,.38-.37V35.73a.38.38,0,0,0-.38-.37H442.79a.38.38,0,0,0-.37.37V47.79a.38.38,0,0,0,.37.37h3.53v.43c0,9.27-2.32,16.23-6.89,20.67a.37.37,0,0,0,0,.51l1,1.25a.37.37,0,0,0,.27.13A.31.31,0,0,0,441,71a26.64,26.64,0,0,0,7.32-14.79h9.31v1.87c0,.79,0,1.63-.07,2.52s-.09,2.09-.09,3.23a21.94,21.94,0,0,1-.34,3.81,1.55,1.55,0,0,1-.51.78,2.77,2.77,0,0,1-1.46.28h-5.12a.38.38,0,0,0-.31.16.37.37,0,0,0,0,.34l.61,1.67a.36.36,0,0,0,.35.24h2.89l.69,0a13.27,13.27,0,0,0,2.64-.26,3.81,3.81,0,0,0,1.62-1,3.88,3.88,0,0,0,1-1.88,33.57,33.57,0,0,0,.38-4.82V54.34A.37.37,0,0,0,459.55,54Zm-2.14-16.33v8.21H444.83V37.64Z"/><rect x="504.74" y="36.38" width="20.38" height="2.32" rx="0.38"/><path d="M491.43,44.87a.41.41,0,0,0,.28.13.31.31,0,0,0,.21-.07,55.57,55.57,0,0,0,10.66-9.24.4.4,0,0,0,.09-.3.41.41,0,0,0-.17-.26l-1.44-.93a.38.38,0,0,0-.49.07,44.26,44.26,0,0,1-10.17,8.79.37.37,0,0,0-.18.26.4.4,0,0,0,.1.31Z"/><path d="M503.49,44a.37.37,0,0,0-.19-.23L501.86,43a.37.37,0,0,0-.48.13A54.21,54.21,0,0,1,490.2,55.59a.37.37,0,0,0-.06.52l1.05,1.37a.43.43,0,0,0,.26.15.47.47,0,0,0,.28-.09,62.69,62.69,0,0,0,5.2-5V70.78a.37.37,0,0,0,.38.37H499a.37.37,0,0,0,.38-.37V49.91a53.58,53.58,0,0,0,4.1-5.6A.39.39,0,0,0,503.49,44Z"/><path d="M526.76,46.87H503.42a.38.38,0,0,0-.38.37v1.57a.38.38,0,0,0,.38.38h14.52V67.82a.66.66,0,0,1-.33.65,18.38,18.38,0,0,1-4.07.24H510a.37.37,0,0,0-.31.16.36.36,0,0,0,0,.35l.6,1.57a.39.39,0,0,0,.35.24h6.48a3.35,3.35,0,0,0,3.08-3.57V49.22h6.4a.38.38,0,0,0,.37-.34l.16-1.6A.39.39,0,0,0,527,47,.36.36,0,0,0,526.76,46.87Z"/><path d="M574.69,69.19a24.36,24.36,0,0,1-9.12-7.06,33.39,33.39,0,0,0,5.6-18.6h2.51a.38.38,0,0,0,.37-.38v-1.5a.38.38,0,0,0-.37-.38H562c.58-2.2,1-4.25,1.38-6.27a.36.36,0,0,0-.29-.43l-1.72-.39a.38.38,0,0,0-.46.32,45.77,45.77,0,0,1-5.64,17,.38.38,0,0,0,.09.48l1.28,1a.37.37,0,0,0,.3.08.37.37,0,0,0,.26-.18,45.38,45.38,0,0,0,4.14-9.41h7.47a30.78,30.78,0,0,1-4.6,16.45,34.27,34.27,0,0,1-3.36-8.56.34.34,0,0,0-.18-.24.38.38,0,0,0-.31,0l-1.53.55a.37.37,0,0,0-.24.45,41.5,41.5,0,0,0,4.13,10,27.75,27.75,0,0,1-10,7.37.39.39,0,0,0-.21.23.37.37,0,0,0,0,.31l.87,1.41a.38.38,0,0,0,.32.18.32.32,0,0,0,.16,0,31.22,31.22,0,0,0,10.09-7.47,27.66,27.66,0,0,0,9.45,7.16.37.37,0,0,0,.45-.12l1-1.34a.37.37,0,0,0,.06-.32A.37.37,0,0,0,574.69,69.19Z"/><path d="M557.61,61.77l-.22-1.38a.4.4,0,0,0-.19-.27.4.4,0,0,0-.32,0l-7.64,3V51.23h5.57a.37.37,0,0,0,.37-.37V49.32a.37.37,0,0,0-.37-.37h-5.57V38.6h7.1a.38.38,0,0,0,.38-.37V36.69a.38.38,0,0,0-.38-.37H538.66a.37.37,0,0,0-.37.37v1.54a.37.37,0,0,0,.37.37h8V63.93l-3.76,1.39V45.61a.38.38,0,0,0-.38-.37H540.9a.38.38,0,0,0-.38.37V66.16L538,67a.39.39,0,0,0-.23.22.4.4,0,0,0,0,.32l.83,1.47a.39.39,0,0,0,.33.19.25.25,0,0,0,.12,0c5.53-1.87,11.69-4.23,18.31-7A.37.37,0,0,0,557.61,61.77Z"/><path d="M610.63,64.12h10.46a.38.38,0,0,0,.37-.38V53.9a.38.38,0,0,0-.37-.38H610.63a.38.38,0,0,0-.38.38v9.84A.38.38,0,0,0,610.63,64.12Zm8.45-8.38v6.13h-6.54V55.74Z"/><path d="M596.24,53.52a.38.38,0,0,0-.38.38v9.84a.38.38,0,0,0,.38.38h10.42a.38.38,0,0,0,.38-.38V53.9a.38.38,0,0,0-.38-.38Zm1.94,8.35V55.74h6.51v6.13Z"/><path d="M617.16,50a.39.39,0,0,0,.11-.27l-.16-8.44a.37.37,0,0,0-.37-.37H600.27a.38.38,0,0,0-.38.37v8.45a.38.38,0,0,0,.38.37H616.9A.36.36,0,0,0,617.16,50Zm-2.3-6.83v4.69H602.43V43.14Z"/><path d="M623.84,67.94H594.43a1.69,1.69,0,0,1-.45,0,1.6,1.6,0,0,1-1.33-1.84V37.71H623a.38.38,0,0,0,.38-.38v-1.5a.38.38,0,0,0-.38-.38H587.83a.37.37,0,0,0-.37.38v1.5a.37.37,0,0,0,.37.38h2.47V65.22a4,4,0,0,0,0,1.46,4.22,4.22,0,0,0,1.78,2.72,4.17,4.17,0,0,0,2.36.74,4.76,4.76,0,0,0,.75-.07H624a.37.37,0,0,0,.28-.13.36.36,0,0,0,.1-.29l-.16-1.38A.37.37,0,0,0,623.84,67.94Z"/><path d="M673.15,69.19A24.28,24.28,0,0,1,664,62.1a33.47,33.47,0,0,0,5.6-18.61h2.5a.37.37,0,0,0,.38-.37v-1.5a.38.38,0,0,0-.38-.38H660.41c.58-2.19,1-4.25,1.38-6.28a.37.37,0,0,0-.29-.42l-1.72-.39a.39.39,0,0,0-.3.06.4.4,0,0,0-.16.26,46,46,0,0,1-5.64,17,.37.37,0,0,0,.09.48l1.28,1a.36.36,0,0,0,.3.08.36.36,0,0,0,.25-.18,43.18,43.18,0,0,0,4.15-9.41h7.47a30.8,30.8,0,0,1-4.6,16.48,34.27,34.27,0,0,1-3.36-8.56.36.36,0,0,0-.19-.24.35.35,0,0,0-.3,0l-1.54.55a.37.37,0,0,0-.23.45,41.88,41.88,0,0,0,4.12,10,27.55,27.55,0,0,1-10,7.37.38.38,0,0,0-.2.23.37.37,0,0,0,0,.31l.87,1.41a.38.38,0,0,0,.32.18.28.28,0,0,0,.15,0,31.26,31.26,0,0,0,10.1-7.47,27.56,27.56,0,0,0,9.45,7.16.38.38,0,0,0,.45-.12l1-1.34a.37.37,0,0,0,.07-.32A.4.4,0,0,0,673.15,69.19Z"/><path d="M656.06,61.73l-.35-1.37a.39.39,0,0,0-.19-.24.37.37,0,0,0-.31,0l-7.64,3V51.23h5.57a.37.37,0,0,0,.37-.37V49.32a.37.37,0,0,0-.37-.37h-5.57V38.6h7.1a.38.38,0,0,0,.38-.37V36.69a.38.38,0,0,0-.38-.37H637.12a.38.38,0,0,0-.38.37v1.54a.38.38,0,0,0,.38.37h8V63.93l-3.75,1.39V45.61a.38.38,0,0,0-.38-.37h-1.66a.38.38,0,0,0-.38.37V66.16l-2.52.84a.39.39,0,0,0-.23.22.36.36,0,0,0,0,.32l.83,1.47a.37.37,0,0,0,.33.19.25.25,0,0,0,.12,0c5.52-1.87,11.69-4.23,18.31-7A.37.37,0,0,0,656.06,61.73Z"/><path d="M709.79,63.3l.1,0a.42.42,0,0,0,.21-.06l1.34-.86a.37.37,0,0,0,.13-.48,35.54,35.54,0,0,0-4.94-7.6.38.38,0,0,0-.5-.06l-1.38,1a.39.39,0,0,0-.15.26.36.36,0,0,0,.09.3,29.62,29.62,0,0,1,4.86,7.32A.4.4,0,0,0,709.79,63.3Z"/><path d="M722.11,48.6H718V42.42a.37.37,0,0,0-.37-.38h-1.66a.38.38,0,0,0-.38.38v6.24H703.15a.38.38,0,0,0-.38.37v1.54a.37.37,0,0,0,.38.37h12.41V67.87c0,.63-.22.74-.65.74H708.2a.38.38,0,0,0-.31.16.36.36,0,0,0,0,.35l.6,1.66a.39.39,0,0,0,.36.25h6.85a3.39,3.39,0,0,0,1.42-.67c.61-.42.89-1.27.89-2.67V50.94h4.14a.37.37,0,0,0,.37-.37V49A.37.37,0,0,0,722.11,48.6Z"/><path d="M722.31,40.53a.39.39,0,0,0,.11-.27l-.07-1.57a.37.37,0,0,0-.37-.36H707.24a34.49,34.49,0,0,0-1.84-4.12.38.38,0,0,0-.23-.18.37.37,0,0,0-.29,0l-1.53.87a.35.35,0,0,0-.18.23.37.37,0,0,0,0,.29,17.86,17.86,0,0,1,1.41,2.88H690.07a.38.38,0,0,0-.38.38V53.24a34.18,34.18,0,0,1-1,9.46,30.85,30.85,0,0,1-3.16,6.79.37.37,0,0,0,.08.49L687,71.1a.35.35,0,0,0,.23.09h.06a.35.35,0,0,0,.25-.16,26.17,26.17,0,0,0,3.51-7.51,37.61,37.61,0,0,0,1.1-10.19V40.65H722A.34.34,0,0,0,722.31,40.53Z"/><path d="M703.87,42.56a.35.35,0,0,0-.22-.21L702,41.8a.38.38,0,0,0-.47.22A51.43,51.43,0,0,1,693,56.47a.37.37,0,0,0,0,.49l1.09,1.19a.4.4,0,0,0,.27.12h0a.4.4,0,0,0,.28-.12,35.31,35.31,0,0,0,3.41-4.41v17a.38.38,0,0,0,.37.37h1.67a.38.38,0,0,0,.37-.37V49.89l1.57-3.13,1.82-3.9A.35.35,0,0,0,703.87,42.56Z"/><path d="M340.24,125q-2.73,10.88-8.19,10.87a11.85,11.85,0,0,1-8.22-5.28,32.85,32.85,0,0,1-6.41-14.93H304.19v13.93a130.45,130.45,0,0,0,13.23-3.78l.39,4.93a161.43,161.43,0,0,1-18.27,4.78l-1.35-4.78a2.29,2.29,0,0,0,1.38-2.3V89.25H335.7v15.19H321a40.35,40.35,0,0,0,.24,6.22h17.45v4.73H322.14a26.56,26.56,0,0,0,4.56,10.84c2.19,2.86,3.92,4.32,5.22,4.32a2,2,0,0,0,1.25-.4,9,9,0,0,0,1.49-2.86,31.83,31.83,0,0,0,1.59-5.28ZM331.11,99.8V94.07H304.19V99.8Zm-14.37,10.86c-.24-1.86-.39-4-.52-6.33h-12v6.33Z"/><path d="M379.83,124.05a203.17,203.17,0,0,1-23.81,9l-1.81-4.27L357,128V102.64h4.94v23.6a31.22,31.22,0,0,0,4.15-1.42V94.93h-10.5V90.52h23.81v4.41H371V106h6.78v4.38H371v12.45c2.92-1.1,5.59-2.24,8-3.41Zm24,7.26-2.93,3.86a44.11,44.11,0,0,1-9.94-8.71,41.85,41.85,0,0,1-12.67,8.73l-2.92-4a34,34,0,0,0,12.9-8.71,35.6,35.6,0,0,1-4.16-9.93l4.3-1.94a36.61,36.61,0,0,0,2.69,7.21,50.23,50.23,0,0,0,3.66-17.11H388a93.78,93.78,0,0,1-5.61,13l-3.78-3.13A74.85,74.85,0,0,0,386,88.22l4.79.86a62.2,62.2,0,0,1-1.55,7.24h13.64v4.46h-3.37a54.63,54.63,0,0,1-5.62,22A33.64,33.64,0,0,0,403.85,131.31Z"/><path d="M463.31,121.83h-3.64V129H442.88v3.53a4.21,4.21,0,0,1-1,2.81,3.89,3.89,0,0,1-2.28,1.37c-.85,0-3.46.21-7.79.21l-1.4-4.31,7-.14a.89.89,0,0,0,.6-.36,1,1,0,0,0,.3-.69V129H421.14v-3.8H438.3v-3.41H418.06V118h20.35v-3H421.25V111.1h17.16v-3.17H422.15V97.43h16.26v-3H418.5v-4h19.91V87.27H443v3.17h19.8v3.91H443v3H459.2v10.59H442.91v3h16.78v6.9h3.65Zm-25-17.46v-3.29H426.73v3.29Zm16.16,0v-3.29H442.88v3.29Zm.63,13.63v-3H442.88v3Zm0,7.24v-3.41H442.88v3.41Z"/><path d="M501.24,105.42a47,47,0,0,1-2.9,12.7l-3.92-1a39.3,39.3,0,0,0,2-7.14h-2.9v21.6a4.3,4.3,0,0,1-.9,2.89,4.73,4.73,0,0,1-2,1.56,11.35,11.35,0,0,1-3.71.41H484l-1.56-4.86h5c.9,0,1.33-.55,1.33-1.62V117.48a41.87,41.87,0,0,1-7.05,12.12L479,125a47.94,47.94,0,0,0,8.53-15.1h-8v-4.45h10.7a37.52,37.52,0,0,0-7.51-6.19L486,96.08A28.5,28.5,0,0,1,490.3,99a41.51,41.51,0,0,0,3.95-4.92h-13V89.6h18.83v4.17a52.5,52.5,0,0,1-6.24,8.24,11.66,11.66,0,0,1,1.28,1.44l-2.27,2Zm24,12.38a86.09,86.09,0,0,1-1.65,15,6.77,6.77,0,0,1-2.21,2.6,9.85,9.85,0,0,1-5.34,1h-2.61l-1.59-4.51h3.31a7.38,7.38,0,0,0,3.22-.46,4.15,4.15,0,0,0,1.19-2.35,43.28,43.28,0,0,0,.66-6.82h-7.22a17.08,17.08,0,0,1-5,8.5,25.74,25.74,0,0,1-9.26,5.93l-3.05-3.93q10.16-3.83,12.31-10.5H501V117.8h8.09a39.23,39.23,0,0,0,.5-4.31l4.7.26a23,23,0,0,1-.35,4Zm2.9-7-2.2,4.16a33.38,33.38,0,0,1-12.3-5.37,45.9,45.9,0,0,1-9.84,5.09l-2.58-4.17a31.72,31.72,0,0,0,8.7-4,38.26,38.26,0,0,1-3.89-4.45l3.72-2.52a44.5,44.5,0,0,0,3.74,4.14A25.08,25.08,0,0,0,518,97.29h-9.52a60.77,60.77,0,0,1-6.09,6.54l-3.31-3.18a51.6,51.6,0,0,0,10.36-12.81l4.38,1.59a30.76,30.76,0,0,1-2.12,3.41h15.18v4.45h-4a25.75,25.75,0,0,1-5.8,9.06,27.35,27.35,0,0,0,11.11,4.42Z"/><path d="M547,124.3A54.93,54.93,0,0,1,544.21,137l-4.25-2a51.87,51.87,0,0,0,2.72-12Zm12.72-4.18-4,1.78c-.18-1-.39-1.86-.59-2.69a130.86,130.86,0,0,1-13.69,3l-1.24-3.91A46.21,46.21,0,0,0,549,106.69c-2.74.5-5.28.86-7.64,1.07l-.62-4.44a48,48,0,0,0,8.23-15.74l4.4,2a43.11,43.11,0,0,1-6.7,12.43,33.73,33.73,0,0,0,5.19-.8c.56-1,1.59-3.23,3.16-6.57l4.54,2.07A80,80,0,0,1,547,116.48a52.78,52.78,0,0,0,6.79-1.62,18.94,18.94,0,0,0-1.06-3l3.8-1.6A52.88,52.88,0,0,1,559.67,120.12Zm-6,14.44-4.31.86a60.17,60.17,0,0,0-1.12-10.95l4-.91a76.67,76.67,0,0,1,1.39,10.89Zm5.55-4.38-3.66,1.31a56.09,56.09,0,0,0-1.54-7.93l3.46-.92a30.55,30.55,0,0,1,1.74,7.43Zm6.66-7.93a42.33,42.33,0,0,1-3.48,13.44l-4-2.19a47.36,47.36,0,0,0,3.36-12.87Zm20.65-4.11H560.67V91.57h6.84a27.93,27.93,0,0,0,1.89-4.08l5.1,1a19.36,19.36,0,0,1-1.41,3.11h13.39Zm-4.87-4.29v-18h-16v17.9Zm-.44-4.47-2.74,3-2.95-3.13a34.79,34.79,0,0,1-3.66,4.11l-3-2.55a26.31,26.31,0,0,0,3.57-4.17l-1.27-1.21a42,42,0,0,1-2.95,3.25L565.65,106a27.54,27.54,0,0,0,2.54-3c-.59-.44-1.36-1-2.27-1.62l2.57-3a16.37,16.37,0,0,1,1.88,1.33,32.51,32.51,0,0,0,1.45-3.11l3.3,1.78-1.83,3.52a16.22,16.22,0,0,1,1.33,1.12,22.44,22.44,0,0,0,2.54-4.79L580.4,100a35.21,35.21,0,0,1-2.95,5.6ZM582.73,129a16.81,16.81,0,0,1-1,5.06,4.06,4.06,0,0,1-2,2.07,14.26,14.26,0,0,1-5.07.59h-3.89a4.09,4.09,0,0,1-2.69-1.21,3.92,3.92,0,0,1-1.12-3V120.75h4.75v10.44a1.15,1.15,0,0,0,.59,1.15,10.49,10.49,0,0,0,3.16.27,2.92,2.92,0,0,0,1.85-.38,3,3,0,0,0,.74-1.63,16.35,16.35,0,0,0,.24-3Zm-3.18-3.4-4,1.86a36,36,0,0,0-2.66-6.69l4-1.53a43,43,0,0,1,2.78,6.24Zm10,6.18-3.93,2.43a57.11,57.11,0,0,0-4.13-11.16l3.9-2.36a55,55,0,0,1,4.39,11Z"/><path d="M649.33,113.78h-16.2c-.72.48-2.75,1.67-5.87,3.52h17.16V137H639.9v-2.54h-23v2.39h-4.44V123c-2.11.72-4.39,1.37-6.86,2l-2-4.18a105.62,105.62,0,0,0,21.67-7.08H604.14v-3.88h18.13v-3.26H607.76v-3.64h14.51v-2.06h4.44v2.06h10.72v2.78c1.62-1.41,3.29-3,5.08-4.84l3.83,1.94a50.5,50.5,0,0,1-7.54,7h10.67ZM647,99.26H606.39V88.15H647Zm-28.52-3.67V92h-7.57v3.62Zm21.39,28.23V121H618.45l-1.72.69v2.09Zm0,6.75v-3h-23v3Zm-9.32-35V92h-7.52v3.62Zm5.67,10.93H626.6v3.26h5.32a48.1,48.1,0,0,0,4.3-3.26Zm6.31-10.93V92h-7.4v3.62Z"/></svg>