<svg id="Layer_1" data-name="Layer 1" xmlns="http://www.w3.org/2000/svg" xmlns:xlink="http://www.w3.org/1999/xlink" viewBox="0 0 1158 150"><defs><style>.cls-1{fill:none;}.cls-2{fill:#ce6111;}.cls-3{fill:#ebb583;}.cls-4{clip-path:url(#clip-path);}.cls-5{clip-path:url(#clip-path-2);}</style><clipPath id="clip-path"><circle class="cls-1" cx="47.4" cy="62.74" r="17.59"/></clipPath><clipPath id="clip-path-2"><path class="cls-1" d="M31.46,78.5s19.82-3.66,86.25,68.84H0S6.49,97.44,31.46,78.5Z"/></clipPath></defs><circle class="cls-2" cx="132.3" cy="21.32" r="17.59"/><path class="cls-2" d="M158.58,84.93l-6.4,24.17h29.25s-4-30.2-4.79-34.62C168.78,38.5,144,43,144,43L132.11,59.78,120.3,43S95.55,38.5,87.77,74.48c-.84,4.42-4.83,34.62-4.83,34.62h29.25l-6.14-24.17Z"/><polygon class="cls-2" points="92.37 121.09 119.57 121.09 130.98 130.41 133.72 130.41 145.31 121.24 172.11 121.24 181.36 112.28 83.01 112.28 92.37 121.09"/><polygon class="cls-2" points="101.51 130.23 163.04 130.23 146.88 147.34 117.71 147.34 101.51 130.23"/><circle class="cls-3" cx="217.15" cy="62.74" r="17.59"/><path class="cls-3" d="M233.13,78.5s-19.82-3.66-86.25,68.84H264.42S258.06,97.44,233.13,78.5Z"/><g class="cls-4"><rect class="cls-2" x="15.22" y="54.6" width="48.73" height="3.03" transform="translate(-28.12 44.61) rotate(-45.15)"/><rect class="cls-2" x="18.96" y="58.35" width="48.73" height="3.03" transform="translate(-29.67 48.37) rotate(-45.15)"/><rect class="cls-2" x="22.74" y="62.12" width="48.73" height="3.03" transform="translate(-31.23 52.15) rotate(-45.15)"/><rect class="cls-2" x="26.52" y="65.93" width="48.73" height="3.03" transform="translate(-32.82 55.96) rotate(-45.15)"/><rect class="cls-2" x="30.36" y="69.67" width="48.73" height="3.03" transform="translate(-34.33 59.78) rotate(-45.15)"/><rect class="cls-2" x="34.14" y="73.48" width="48.73" height="3.03" transform="translate(-35.92 63.59) rotate(-45.15)"/><rect class="cls-2" x="11.34" y="50.8" width="48.73" height="3.03" transform="translate(-26.57 40.74) rotate(-45.15)"/></g><g class="cls-5"><rect class="cls-2" x="-29.39" y="98.66" width="94.95" height="3.03" transform="translate(-65.8 42.51) rotate(-45.26)"/><rect class="cls-2" x="-25.58" y="102.41" width="94.95" height="3.03" transform="translate(-67.34 46.33) rotate(-45.26)"/><rect class="cls-2" x="-21.8" y="106.16" width="94.95" height="3.03" transform="translate(-68.88 50.12) rotate(-45.26)"/><rect class="cls-2" x="-17.98" y="109.91" width="94.95" height="3.03" transform="translate(-70.42 53.94) rotate(-45.26)"/><rect class="cls-2" x="-14.2" y="113.7" width="94.95" height="3.03" transform="translate(-71.99 57.75) rotate(-45.26)"/><rect class="cls-2" x="-10.47" y="117.51" width="94.95" height="3.03" transform="translate(-73.59 61.52) rotate(-45.26)"/><rect class="cls-2" x="-33.21" y="94.87" width="94.95" height="3.03" transform="translate(-64.24 38.67) rotate(-45.26)"/><rect class="cls-2" x="-2.82" y="125.02" width="94.95" height="3.03" transform="translate(-76.66 69.19) rotate(-45.26)"/><rect class="cls-2" x="0.96" y="128.77" width="94.95" height="3.03" transform="translate(-78.2 72.98) rotate(-45.26)"/><rect class="cls-2" x="4.8" y="132.54" width="94.95" height="3.03" transform="translate(-79.74 76.83) rotate(-45.26)"/><rect class="cls-2" x="8.59" y="136.31" width="94.95" height="3.03" transform="translate(-81.3 80.64) rotate(-45.26)"/><rect class="cls-2" x="12.38" y="140.04" width="94.95" height="3.03" transform="translate(-82.83 84.43) rotate(-45.26)"/><rect class="cls-2" x="16.2" y="143.79" width="94.95" height="3.03" transform="translate(-84.36 88.25) rotate(-45.26)"/><rect class="cls-2" x="-6.6" y="121.18" width="94.95" height="3.03" transform="translate(-75.05 65.37) rotate(-45.26)"/><rect class="cls-2" x="23.82" y="151.31" width="94.95" height="3.03" transform="translate(-87.44 95.89) rotate(-45.26)"/><rect class="cls-2" x="27.51" y="155.16" width="94.95" height="3.03" transform="translate(-89.09 99.66) rotate(-45.26)"/><rect class="cls-2" x="31.36" y="158.86" width="94.95" height="3.03" transform="translate(-90.58 103.49) rotate(-45.26)"/><rect class="cls-2" x="35.18" y="162.65" width="94.95" height="3.03" transform="translate(-92.14 107.32) rotate(-45.26)"/><rect class="cls-2" x="38.96" y="166.37" width="94.95" height="3.03" transform="translate(-93.66 111.1) rotate(-45.26)"/><rect class="cls-2" x="42.75" y="170.15" width="94.95" height="3.03" transform="translate(-95.22 114.91) rotate(-45.26)"/><rect class="cls-2" x="20" y="147.57" width="94.95" height="3.03" transform="translate(-85.92 92.08) rotate(-45.26)"/></g><path d="M295,85.62V57.5h5.68v11h11.14v-11h5.66V85.62h-5.66V73.33H300.72V85.62Z"/><path d="M322.08,75.16A10.83,10.83,0,0,1,323.4,70a8.78,8.78,0,0,1,3.79-3.72,11.09,11.09,0,0,1,5.43-1.34,10.27,10.27,0,0,1,7.58,3A11.15,11.15,0,0,1,340.06,83a9.93,9.93,0,0,1-7.51,3,11.53,11.53,0,0,1-5.36-1.36A8.63,8.63,0,0,1,323.33,81,12.28,12.28,0,0,1,322.08,75.16Zm5.53.27A6.63,6.63,0,0,0,329,80.05a4.74,4.74,0,0,0,7.09,0,6.88,6.88,0,0,0,1.43-4.62,6.88,6.88,0,0,0-1.43-4.62,4.73,4.73,0,0,0-7.09,0,6.88,6.88,0,0,0-1.43,4.62Z"/><path d="M347.49,65.24h5V68a7.89,7.89,0,0,1,6.33-3.26,7.07,7.07,0,0,1,3.4.81A6.26,6.26,0,0,1,364.5,68a9.8,9.8,0,0,1,2.91-2.45,7.15,7.15,0,0,1,3.3-.81,7.35,7.35,0,0,1,3.81.93,5.52,5.52,0,0,1,2.32,2.68,11.94,11.94,0,0,1,.55,4.2v13H372V74.07a8.78,8.78,0,0,0-.56-3.9A2.6,2.6,0,0,0,369.14,69a3.77,3.77,0,0,0-3.56,2.7,14,14,0,0,0-.44,4.23v9.77h-5.29V74.46a16.42,16.42,0,0,0-.3-3.83,2.47,2.47,0,0,0-.87-1.3,3,3,0,0,0-1.65-.41,3.88,3.88,0,0,0-2.31.67,3.54,3.54,0,0,0-1.41,1.94,13.53,13.53,0,0,0-.43,4.2v9.89h-5.39Z"/><path d="M395.67,79.13l5.39.9a8.77,8.77,0,0,1-3.28,4.62,9.64,9.64,0,0,1-5.59,1.55,9,9,0,0,1-7.86-3.47,11.53,11.53,0,0,1-2-6.93A11.11,11.11,0,0,1,385,67.88a8.67,8.67,0,0,1,6.7-2.89,9.11,9.11,0,0,1,7.17,3,13.45,13.45,0,0,1,2.51,9.25H387.84a5.31,5.31,0,0,0,1.3,3.74,4.06,4.06,0,0,0,3.11,1.32,3.44,3.44,0,0,0,2.13-.67A4.39,4.39,0,0,0,395.67,79.13Zm.3-5.43a5.09,5.09,0,0,0-1.2-3.56A3.59,3.59,0,0,0,392,68.92a3.72,3.72,0,0,0-2.91,1.27,5,5,0,0,0-1.14,3.51Z"/><path d="M441.73,85.62h-6.17l-2.45-6.4H421.86l-2.31,6.4h-6L424.38,57.5h6ZM431.31,74.49l-3.88-10.42-3.79,10.42Z"/><path d="M441.86,65.24h3V63.72a10,10,0,0,1,.55-3.84,4.22,4.22,0,0,1,2-2.05,7.69,7.69,0,0,1,3.7-.83,14.74,14.74,0,0,1,4.62.69L455,61.45a10.31,10.31,0,0,0-2.47-.3,2.07,2.07,0,0,0-1.66.54,3.06,3.06,0,0,0-.51,2.1v1.43h4v4.25h-4V85.65h-5.41V69.47h-3.07Z"/><path d="M455.08,65.24h3V63.72a9.83,9.83,0,0,1,.53-3.84,4.22,4.22,0,0,1,2-2.05,7.62,7.62,0,0,1,3.72-.83,14.74,14.74,0,0,1,4.62.69l-.88,3.76a10.41,10.41,0,0,0-2.49-.3,2.06,2.06,0,0,0-1.66.54,3.06,3.06,0,0,0-.51,2.1v1.43h4v4.25h-4V85.65h-5.38V69.47h-3Z"/><path d="M473.62,71.46l-4.89-.88a7.53,7.53,0,0,1,2.79-4.34,10.39,10.39,0,0,1,6-1.43,13.26,13.26,0,0,1,5.36.85,5.47,5.47,0,0,1,2.49,2.17,11.86,11.86,0,0,1,.72,4.83V79a18.22,18.22,0,0,0,.28,4,10.15,10.15,0,0,0,.94,2.73H482c-.14-.37-.32-.91-.53-1.6a6.36,6.36,0,0,0-.19-.62,10.54,10.54,0,0,1-3,2,8.75,8.75,0,0,1-3.35.67,6.93,6.93,0,0,1-5-1.71,6,6,0,0,1-1-7.4,5.18,5.18,0,0,1,2.31-2.08,17.58,17.58,0,0,1,4.27-1.24,33.9,33.9,0,0,0,5.25-1.32v-.58a2.76,2.76,0,0,0-.77-2.31,4.65,4.65,0,0,0-2.91-.67,3.83,3.83,0,0,0-2.31.56A4.06,4.06,0,0,0,473.62,71.46Zm7.21,4.39c-.69.21-1.8.48-3.28.81a9.77,9.77,0,0,0-2.93,1,2.27,2.27,0,0,0-1.06,1.89,2.53,2.53,0,0,0,.85,2,2.82,2.82,0,0,0,2.15.81,4.57,4.57,0,0,0,2.77-1,3.6,3.6,0,0,0,1.3-1.77,12.32,12.32,0,0,0,.2-2.64Z"/><path d="M491,62.49v-5h5.38v5Zm0,23.11V65.24h5.38V85.62Z"/><path d="M507.64,85.62h-5.39V65.24h5v2.92a7.83,7.83,0,0,1,2.31-2.71,4.29,4.29,0,0,1,2.31-.67,7,7,0,0,1,3.53,1l-1.66,4.62a4.66,4.66,0,0,0-2.54-.88,3,3,0,0,0-1.92.63,4.2,4.2,0,0,0-1.22,2.31,29.8,29.8,0,0,0-.46,6.93Z"/><path d="M515.93,79.8l5.41-.81a3.93,3.93,0,0,0,1.41,2.31,4.59,4.59,0,0,0,3,.81,5.4,5.4,0,0,0,3.14-.76,1.68,1.68,0,0,0,.72-1.43,1.49,1.49,0,0,0-.4-1,4.35,4.35,0,0,0-1.8-.72,28.06,28.06,0,0,1-8.27-2.7,5.12,5.12,0,0,1-2.31-4.62,5.62,5.62,0,0,1,2.08-4.46,9.81,9.81,0,0,1,6.49-1.8A11.52,11.52,0,0,1,531.58,66a7,7,0,0,1,2.79,4l-5.08.93a3,3,0,0,0-1.25-1.8,4.23,4.23,0,0,0-2.59-.65,6.07,6.07,0,0,0-3.05.6,1.28,1.28,0,0,0-.62,1.09,1.18,1.18,0,0,0,.55,1,20.18,20.18,0,0,0,5,1.5,14.82,14.82,0,0,1,6,2.31,5.1,5.1,0,0,1,1.69,4,6.26,6.26,0,0,1-2.32,4.83,10.35,10.35,0,0,1-6.93,2,11.54,11.54,0,0,1-6.58-1.69A7.89,7.89,0,0,1,515.93,79.8Z"/><path d="M550.26,57.5h10.3a21,21,0,0,1,5.36.54,9.7,9.7,0,0,1,4.23,2.58,13.05,13.05,0,0,1,2.7,4.62,21.46,21.46,0,0,1,.9,6.66,18.62,18.62,0,0,1-.85,6,12.33,12.33,0,0,1-3,5,9.76,9.76,0,0,1-4,2.31,17.64,17.64,0,0,1-5,.6h-10.7Zm5.68,4.76V80.89h4.23a14.72,14.72,0,0,0,3.44-.28,5.16,5.16,0,0,0,2.31-1.16,6.05,6.05,0,0,0,1.48-2.72,18.67,18.67,0,0,0,.58-5.16,16.51,16.51,0,0,0-.58-5,6.3,6.3,0,0,0-1.59-2.72,5.78,5.78,0,0,0-2.64-1.34,28.51,28.51,0,0,0-4.62-.26Z"/><path d="M590.48,79.13l5.36.9a8.71,8.71,0,0,1-3.28,4.62A9.62,9.62,0,0,1,587,86.2a9.21,9.21,0,0,1-7.85-3.47,11.46,11.46,0,0,1-2-6.93,11.1,11.1,0,0,1,2.75-8.13,8.65,8.65,0,0,1,6.67-2.89,9.25,9.25,0,0,1,7.19,3A13.43,13.43,0,0,1,596.21,77H582.63a5.49,5.49,0,0,0,1.29,3.74A4.1,4.1,0,0,0,587,82.09a3.4,3.4,0,0,0,2.13-.67A4.25,4.25,0,0,0,590.48,79.13Zm.3-5.43a5.2,5.2,0,0,0-1.2-3.56,3.91,3.91,0,0,0-5.52-.21h0l-.21.21a5.13,5.13,0,0,0-1.13,3.51Z"/><path d="M600.44,65.24h5v3a7.92,7.92,0,0,1,2.65-2.5,7.19,7.19,0,0,1,3.7-1,7.89,7.89,0,0,1,6,2.8,11.23,11.23,0,0,1,2.47,7.74,11.56,11.56,0,0,1-2.49,7.92,7.8,7.8,0,0,1-6.12,2.84,6.69,6.69,0,0,1-3.05-.67,10.59,10.59,0,0,1-2.89-2.31V93.36h-5.39Zm5.34,9.85a7.67,7.67,0,0,0,1.29,5,4.14,4.14,0,0,0,3.31,1.64,3.88,3.88,0,0,0,3.12-1.5,8,8,0,0,0,1.25-4.95,7.36,7.36,0,0,0-1.28-4.75A3.9,3.9,0,0,0,610.29,69,4.08,4.08,0,0,0,607,70.51,6.57,6.57,0,0,0,605.78,75.09Z"/><path d="M628.68,71.46l-4.88-.88a7.51,7.51,0,0,1,2.82-4.34,10.39,10.39,0,0,1,6-1.43,13.36,13.36,0,0,1,5.38.85,5.22,5.22,0,0,1,2.47,2.17,11.53,11.53,0,0,1,.72,4.83V79a21.13,21.13,0,0,0,.25,4,12,12,0,0,0,1,2.73h-5.47c-.14-.37-.3-.91-.51-1.6l-.19-.62a10.64,10.64,0,0,1-3,2,9,9,0,0,1-3.35.67,7,7,0,0,1-5-1.71,6.12,6.12,0,0,1-1-7.4,5.47,5.47,0,0,1,2.31-2.08,18.82,18.82,0,0,1,4.29-1.24,33.66,33.66,0,0,0,5.23-1.32v-.58a2.79,2.79,0,0,0-.77-2.31,4.42,4.42,0,0,0-2.88-.67,3,3,0,0,0-3.47,2.66Zm7.21,4.39c-.7.21-1.78.48-3.28.81a9.92,9.92,0,0,0-2.94,1,2.29,2.29,0,0,0-1,1.89,2.57,2.57,0,0,0,.84,2,2.89,2.89,0,0,0,2.14.81,4.57,4.57,0,0,0,2.8-1,3.48,3.48,0,0,0,1.27-1.77,13,13,0,0,0,.21-2.64Z"/><path d="M651.74,85.62h-5.41V65.24h5v2.92a7.83,7.83,0,0,1,2.31-2.71,4.29,4.29,0,0,1,2.31-.67,6.93,6.93,0,0,1,3.56,1l-1.69,4.62a4.68,4.68,0,0,0-2.52-.88,2.87,2.87,0,0,0-1.92.63,4.11,4.11,0,0,0-1.24,2.31,31.52,31.52,0,0,0-.44,6.93Z"/><path d="M671.26,65.24v4.3h-3.67v8.25a19.91,19.91,0,0,0,0,2.89,1.14,1.14,0,0,0,.49.69,1.44,1.44,0,0,0,.92.26,7.26,7.26,0,0,0,2.15-.51l.46,4.18a10.86,10.86,0,0,1-4.25.81,7.18,7.18,0,0,1-2.63-.49A3.78,3.78,0,0,1,663,84.35a4.82,4.82,0,0,1-.77-2.1,24,24,0,0,1-.16-3.79V69.54h-2.47v-4.3h2.47v-4l5.41-3.14v7.18Z"/><path d="M674.19,65.24h4.94V68a7.89,7.89,0,0,1,6.33-3.26,7.07,7.07,0,0,1,3.4.81A6.26,6.26,0,0,1,691.17,68a9.8,9.8,0,0,1,2.91-2.45,7.15,7.15,0,0,1,3.3-.81,7.41,7.41,0,0,1,3.82.93,5.55,5.55,0,0,1,2.31,2.68,11.94,11.94,0,0,1,.55,4.2v13h-5.38V74.07a8.78,8.78,0,0,0-.56-3.9A2.6,2.6,0,0,0,695.81,69a3.77,3.77,0,0,0-3.56,2.7,13.72,13.72,0,0,0-.43,4.23v9.77h-5.39V74.46a15.9,15.9,0,0,0-.37-3.83,2.49,2.49,0,0,0-.88-1.3,2.93,2.93,0,0,0-1.64-.41,3.88,3.88,0,0,0-2.31.67,3.54,3.54,0,0,0-1.41,1.94,13.85,13.85,0,0,0-.44,4.2v9.89H674Z"/><path d="M721.87,79.13l5.38.9A8.92,8.92,0,0,1,724,84.65a9.62,9.62,0,0,1-5.59,1.55,9,9,0,0,1-7.86-3.47,11.6,11.6,0,0,1-2-6.93,11.12,11.12,0,0,1,2.64-7.92,8.67,8.67,0,0,1,6.7-2.89A9.1,9.1,0,0,1,725,68a13.51,13.51,0,0,1,2.52,9.25H714.1A5.35,5.35,0,0,0,715.4,81a4.1,4.1,0,0,0,3.12,1.32,3.43,3.43,0,0,0,2.12-.67A4.31,4.31,0,0,0,721.87,79.13Zm.3-5.43a5.19,5.19,0,0,0-1.2-3.56,3.61,3.61,0,0,0-2.8-1.22,3.72,3.72,0,0,0-2.91,1.27,5,5,0,0,0-1.13,3.51Z"/><path d="M749.57,85.62h-5.39V75.23a16.87,16.87,0,0,0-.39-4.37,3.07,3.07,0,0,0-1.13-1.5,3.13,3.13,0,0,0-1.87-.53,4.21,4.21,0,0,0-2.5.76,3.72,3.72,0,0,0-1.52,2,17.12,17.12,0,0,0-.42,4.62v9.24h-5.41V65.15h5v3a8.07,8.07,0,0,1,6.72-3.47,8.47,8.47,0,0,1,3.26.65A5.64,5.64,0,0,1,748.25,67a6.12,6.12,0,0,1,1,2.31,16.92,16.92,0,0,1,.3,3.62Z"/><path d="M765.9,65.24v4.3h-3.7v8.25a17.43,17.43,0,0,0,0,2.89,1.14,1.14,0,0,0,.49.69,1.38,1.38,0,0,0,.9.26,7.31,7.31,0,0,0,2.17-.51l.46,4.18a10.82,10.82,0,0,1-4.25.81,7.18,7.18,0,0,1-2.63-.49,3.73,3.73,0,0,1-1.71-1.27,4.93,4.93,0,0,1-.76-2.1,22.87,22.87,0,0,1-.19-3.79V69.54h-2.47v-4.3h2.47v-4l5.41-3.14v7.18Z"/><path d="M299.47,126.28v-18.1H292.7v-2.39H309v2.39h-6.79v18.1Z"/><path d="M312.09,126.28V105.77h2.53v7.36a5.59,5.59,0,0,1,4.45-2,6,6,0,0,1,2.87.64,4.06,4.06,0,0,1,1.75,1.82,8.18,8.18,0,0,1,.52,3.32v9.42h-2.53v-9.42a4,4,0,0,0-.82-2.75,3.09,3.09,0,0,0-2.39-.86,4,4,0,0,0-2.1.58A3.22,3.22,0,0,0,315,115.4a7.35,7.35,0,0,0-.41,2.75v8.13Z"/><path d="M338.87,121.5l2.6.33a6.39,6.39,0,0,1-2.39,3.54,6.93,6.93,0,0,1-4.25,1.27,6.85,6.85,0,0,1-5.19-2,7.81,7.81,0,0,1-1.91-5.62,8.14,8.14,0,0,1,1.93-5.83,6.88,6.88,0,0,1,9.81,0,8.18,8.18,0,0,1,1.89,5.71v.79H330.45a5.55,5.55,0,0,0,1.39,3.75,4.08,4.08,0,0,0,3.11,1.32,3.73,3.73,0,0,0,2.39-.74A4.64,4.64,0,0,0,338.87,121.5Zm-8.27-4.06h8.32a5.07,5.07,0,0,0-1-2.83,3.82,3.82,0,0,0-3.13-1.45,4,4,0,0,0-2.92,1.17A4.53,4.53,0,0,0,330.6,117.44Z"/><path d="M362.78,118.25v-2.39h8.71v7.58a15.84,15.84,0,0,1-4.14,2.39,11.88,11.88,0,0,1-4.37.81,11.54,11.54,0,0,1-5.5-1.29,8.31,8.31,0,0,1-3.73-3.75,11.86,11.86,0,0,1-1.27-5.48,12.54,12.54,0,0,1,1.24-5.59,8.42,8.42,0,0,1,3.61-3.85,11,11,0,0,1,5.43-1.27,10.74,10.74,0,0,1,4,.72,6.66,6.66,0,0,1,2.82,2,9.27,9.27,0,0,1,1.56,3.37l-2.39.67a8.18,8.18,0,0,0-1.15-2.4,4.73,4.73,0,0,0-2-1.43,7.23,7.23,0,0,0-2.82-.55,8.47,8.47,0,0,0-3.23.57,5.81,5.81,0,0,0-2.2,1.49,6.74,6.74,0,0,0-1.29,2,10.13,10.13,0,0,0-.79,4.13,9.51,9.51,0,0,0,1,4.6,5.85,5.85,0,0,0,2.75,2.74,8.18,8.18,0,0,0,3.82.91,9.18,9.18,0,0,0,3.47-.69,10,10,0,0,0,2.39-1.58v-3.82Z"/><path d="M374.93,118.85a7.67,7.67,0,0,1,2.39-6.12,7,7,0,0,1,4.78-1.65,6.67,6.67,0,0,1,5,2,7.7,7.7,0,0,1,1.94,5.57,10,10,0,0,1-.86,4.52,6.22,6.22,0,0,1-2.39,2.54,7.39,7.39,0,0,1-3.59.93,6.63,6.63,0,0,1-5-2A7.93,7.93,0,0,1,374.93,118.85Zm2.61,0a6.21,6.21,0,0,0,1.24,4.28,4.17,4.17,0,0,0,5.83.43l.43-.43a6.59,6.59,0,0,0,1.25-4.36,6.35,6.35,0,0,0-1.13-4.18,4.15,4.15,0,0,0-5.83-.43l-.43.43A6.15,6.15,0,0,0,377.54,118.85Z"/><path d="M396.62,126.28,391,111.41h2.66l3.2,8.92c.33,1,.67,2,1,3,.21-.79.52-1.72.93-2.82l3.3-9.09h2.6L399,126.28Z"/><path d="M417.64,121.5l2.6.33a6.39,6.39,0,0,1-2.39,3.54,6.84,6.84,0,0,1-4.26,1.27,6.71,6.71,0,0,1-5.16-2,7.71,7.71,0,0,1-1.91-5.62,8.14,8.14,0,0,1,1.93-5.83,6.49,6.49,0,0,1,5-2.08,6.24,6.24,0,0,1,4.78,2,8.09,8.09,0,0,1,1.89,5.71v.79h-11a5.5,5.5,0,0,0,1.39,3.75,4.07,4.07,0,0,0,3.1,1.32,3.76,3.76,0,0,0,2.4-.74A4.79,4.79,0,0,0,417.64,121.5Zm-8.28-4.06h8.28a5.07,5.07,0,0,0-1-2.83,3.79,3.79,0,0,0-3.11-1.45,4,4,0,0,0-2.94,1.17,4.44,4.44,0,0,0-1.24,3.11Z"/><path d="M424,126.28V111.41h2.4v2.39a5.61,5.61,0,0,1,1.6-2.1,2.68,2.68,0,0,1,1.62-.5,4.83,4.83,0,0,1,2.58.81l-.86,2.39a3.73,3.73,0,0,0-1.84-.55,2.4,2.4,0,0,0-1.5.5,2.67,2.67,0,0,0-.94,1.39,9.41,9.41,0,0,0-.4,2.94v7.77Z"/><path d="M433.4,126.28V111.41h2.39v2.13a5.31,5.31,0,0,1,4.78-2.39,6.15,6.15,0,0,1,2.39.48,4.17,4.17,0,0,1,1.7,1.26,5.19,5.19,0,0,1,.69,1.94,13.65,13.65,0,0,1,.15,2.39v9.13H443v-9.13a6.66,6.66,0,0,0-.29-2.39,2.33,2.33,0,0,0-1.05-1.22,3.21,3.21,0,0,0-1.74-.45,4.09,4.09,0,0,0-2.8,1,5.11,5.11,0,0,0-1.17,3.9v8.1Z"/><path d="M450.37,126.28V111.41h2.39v2.1a5.26,5.26,0,0,1,4.5-2.39,5,5,0,0,1,2.72.7,3.67,3.67,0,0,1,1.49,1.91,5.33,5.33,0,0,1,4.49-2.65,4.78,4.78,0,0,1,3.42,1.22,5.37,5.37,0,0,1,1.19,3.77v10.21h-2.51v-9.37a7.32,7.32,0,0,0-.26-2.18,2,2,0,0,0-.88-1,2.6,2.6,0,0,0-1.51-.4,3.57,3.57,0,0,0-2.61,1,4.47,4.47,0,0,0-1,3.35v8.63h-2.54v-9.56a4,4,0,0,0-.62-2.39,2.38,2.38,0,0,0-2-.84,3.41,3.41,0,0,0-2,.55,3,3,0,0,0-1.31,1.65,8.42,8.42,0,0,0-.41,3.11v7.7Z"/><path d="M485.61,121.5l2.61.33a6.39,6.39,0,0,1-2.39,3.54,6.84,6.84,0,0,1-4.26,1.27,6.71,6.71,0,0,1-5.16-2A7.71,7.71,0,0,1,474.5,119a8.1,8.1,0,0,1,1.93-5.83,6.41,6.41,0,0,1,5-2.08,6.25,6.25,0,0,1,4.78,2,8.13,8.13,0,0,1,1.89,5.71v.79H477a5.49,5.49,0,0,0,1.38,3.75,4.08,4.08,0,0,0,3.11,1.32,3.73,3.73,0,0,0,2.39-.74A4.77,4.77,0,0,0,485.61,121.5Zm-8.27-4.06h8.3a5.07,5.07,0,0,0-1-2.83,3.79,3.79,0,0,0-3.11-1.45,4,4,0,0,0-2.94,1.17,4.36,4.36,0,0,0-1.29,3.11Z"/><path d="M492,126.28V111.41h2.39v2.13a5.32,5.32,0,0,1,4.78-2.39,6.11,6.11,0,0,1,2.39.48,4.27,4.27,0,0,1,1.68,1.26,5.33,5.33,0,0,1,.79,1.87,13.64,13.64,0,0,1,.14,2.39v9.13H501.8v-9.06a7.41,7.41,0,0,0-.31-2.39,2.25,2.25,0,0,0-1-1.22,3.31,3.31,0,0,0-1.77-.45,4,4,0,0,0-2.77,1,5,5,0,0,0-1.17,3.9v8.1Z"/><path d="M514.14,124l.36,2.23a8.66,8.66,0,0,1-1.89.24,4.56,4.56,0,0,1-2.15-.43,2.46,2.46,0,0,1-1.06-1.15,8.62,8.62,0,0,1-.31-3v-8.56h-1.84v-2h1.84v-3.75l2.39-1.51v5.19H514v2h-2.54V122a3.45,3.45,0,0,0,.15,1.39.79.79,0,0,0,.43.5,1.7,1.7,0,0,0,.86.17A5.53,5.53,0,0,0,514.14,124Z"/><path d="M522.92,118.85a7.65,7.65,0,0,1,2.4-6.12,6.94,6.94,0,0,1,4.78-1.65,6.7,6.7,0,0,1,5,2,7.71,7.71,0,0,1,1.86,5.57,10,10,0,0,1-.86,4.52,6.08,6.08,0,0,1-2.63,2.54,7.35,7.35,0,0,1-3.58.93,6.67,6.67,0,0,1-4.88-2A8,8,0,0,1,522.92,118.85Zm2.61,0a6.27,6.27,0,0,0,1.24,4.28,4.18,4.18,0,0,0,5.84.43l.43-.43a6.79,6.79,0,0,0,1.24-4.36,6.29,6.29,0,0,0-1.27-4.18,4.1,4.1,0,0,0-5.79-.44h0a2.5,2.5,0,0,0-.43.43,6.2,6.2,0,0,0-1.24,4.26Z"/><path d="M541.07,126.28V113.37h-2.2v-2h2.23v-1.58a6.34,6.34,0,0,1,.16-2.17,3.14,3.14,0,0,1,1.29-1.6,4.52,4.52,0,0,1,2.56-.6,10.6,10.6,0,0,1,2.39.24l-.38,2.2a7.32,7.32,0,0,0-1.48,0,2.09,2.09,0,0,0-1.63.47,2.64,2.64,0,0,0-.47,1.85v1.36h2.89v2h-2.78v12.91Z"/><path d="M561.14,124l.36,2.23a8.58,8.58,0,0,1-1.89.24,4.56,4.56,0,0,1-2.15-.43,2.39,2.39,0,0,1-1.05-1.15,8.38,8.38,0,0,1-.31-3v-8.56h-1.84v-2h1.84v-3.75l2.65-1.44v5.19h2.39v2h-2.39V122a3.28,3.28,0,0,0,.15,1.39.79.79,0,0,0,.43.5,1.68,1.68,0,0,0,.86.17A6,6,0,0,0,561.14,124Z"/><path d="M563.33,126.28V105.77h2.53v7.36a5.59,5.59,0,0,1,4.45-2,6,6,0,0,1,2.87.64,4,4,0,0,1,1.74,1.82,8.36,8.36,0,0,1,.53,3.32v9.42h-2.54v-9.42a3.9,3.9,0,0,0-.81-2.75,3.12,3.12,0,0,0-2.39-.86,4,4,0,0,0-2.11.58,3.22,3.22,0,0,0-1.41,1.57,7.15,7.15,0,0,0-.4,2.75v8.13Z"/><path d="M590.22,121.5l2.61.33a6.41,6.41,0,0,1-2.27,3.54,7,7,0,0,1-4.26,1.27,6.86,6.86,0,0,1-5.19-2A7.81,7.81,0,0,1,579.2,119a8.11,8.11,0,0,1,1.94-5.83,6.87,6.87,0,0,1,9.8,0,8.13,8.13,0,0,1,1.89,5.71v.79H581.69a5.62,5.62,0,0,0,1.39,3.75,4.06,4.06,0,0,0,3.1,1.32,3.71,3.71,0,0,0,2.39-.74A4.63,4.63,0,0,0,590.22,121.5ZM582,117.44h8.27a5,5,0,0,0-1-2.83,3.85,3.85,0,0,0-3.13-1.45,3.94,3.94,0,0,0-2.92,1.17,4.51,4.51,0,0,0-1.39,3.11Z"/><path d="M605.55,126.28V105.77h2.8v8.41h10.59v-8.41h2.73v20.51h-2.73v-9.56H608.28v9.56Z"/><path d="M625.11,118.85a7.67,7.67,0,0,1,2.39-6.12,6.78,6.78,0,0,1,4.79-1.65,6.7,6.7,0,0,1,5,2,7.85,7.85,0,0,1,2,5.57,10.16,10.16,0,0,1-.86,4.52,6.25,6.25,0,0,1-2.4,2.54,7.22,7.22,0,0,1-3.61.93,6.63,6.63,0,0,1-5-2A8,8,0,0,1,625.11,118.85Zm2.58,0a6.27,6.27,0,0,0,1.25,4.28,4.17,4.17,0,0,0,5.83.43l.43-.43a6.53,6.53,0,0,0,1.24-4.36,6.17,6.17,0,0,0-1.24-4.18,4.15,4.15,0,0,0-5.83-.43,3.49,3.49,0,0,0-.43.43,6.16,6.16,0,0,0-1.27,4.26Z"/><path d="M643.21,126.28V111.41h2.39v2.13a5.31,5.31,0,0,1,4.78-2.39,6.11,6.11,0,0,1,2.39.48,4.27,4.27,0,0,1,1.68,1.26,5.33,5.33,0,0,1,.79,1.87,13.64,13.64,0,0,1,.14,2.39v9.13H653v-9.06a6.66,6.66,0,0,0-.29-2.39,2.51,2.51,0,0,0-1-1.22,3.29,3.29,0,0,0-1.77-.45,4,4,0,0,0-2.77,1,5.06,5.06,0,0,0-1.31,4v8.1Z"/><path d="M659.25,127.52l2.4.36a2.15,2.15,0,0,0,.86,1.65,4,4,0,0,0,2.55.72,4.56,4.56,0,0,0,2.71-.72,3.46,3.46,0,0,0,1.29-2,15.87,15.87,0,0,0,.16-3.23,5.17,5.17,0,0,1-4.11,1.94,5.6,5.6,0,0,1-4.78-2.2,8.56,8.56,0,0,1-1.67-5.31,9.91,9.91,0,0,1,.79-3.94,6.2,6.2,0,0,1,2.24-2.77,6,6,0,0,1,3.45-1,5.33,5.33,0,0,1,4.32,2.12v-1.79h2.39v13a12.33,12.33,0,0,1-.71,4.93,5.16,5.16,0,0,1-2.25,2.39,7.74,7.74,0,0,1-3.78.83,7.14,7.14,0,0,1-4.3-1.19A4.1,4.1,0,0,1,659.25,127.52Zm2.11-8.94a6.33,6.33,0,0,0,1.15,4.28,3.85,3.85,0,0,0,5.42.41,3.18,3.18,0,0,0,.41-.41,6.24,6.24,0,0,0,1.17-4.18,6.43,6.43,0,0,0-1.19-4.14,3.85,3.85,0,0,0-2.94-1.38,3.61,3.61,0,0,0-2.85,1.38,6,6,0,0,0-1.17,4Z"/><path d="M684.65,126.28V105.77h2.73v10.16l10.2-10.16h3.69l-8.63,8.32,9,12.19H698l-7.17-10.37-3.37,3.27v7.17Z"/><path d="M702.8,118.85a7.64,7.64,0,0,1,2.39-6.12,6.87,6.87,0,0,1,4.66-1.65,6.69,6.69,0,0,1,5,2,7.82,7.82,0,0,1,1.85,5.57,10,10,0,0,1-.87,4.52,6.22,6.22,0,0,1-2.39,2.54,7.22,7.22,0,0,1-3.61.93,6.63,6.63,0,0,1-5.09-2A7.9,7.9,0,0,1,702.8,118.85Zm2.58,0a6.27,6.27,0,0,0,1.25,4.28,4.17,4.17,0,0,0,5.83.43l.43-.43a6.53,6.53,0,0,0,1.24-4.36,6.19,6.19,0,0,0-1.17-4.18,4.15,4.15,0,0,0-5.83-.43,3.49,3.49,0,0,0-.43.43,6.21,6.21,0,0,0-1.25,4.26Z"/><path d="M720.33,126.28V111.41h2.27v2.13a5.31,5.31,0,0,1,4.78-2.39,6.15,6.15,0,0,1,2.39.48,4.23,4.23,0,0,1,1.67,1.26,5,5,0,0,1,.79,1.87,13.65,13.65,0,0,1,.15,2.39v9.13h-2.54v-9.06a6.88,6.88,0,0,0-.28-2.39,2.39,2.39,0,0,0-1.06-1.22,3.21,3.21,0,0,0-1.74-.45,4,4,0,0,0-2.77,1,5,5,0,0,0-1.18,3.9v8.1Z"/><path d="M736.47,127.52l2.39.36a2.15,2.15,0,0,0,.86,1.65,4,4,0,0,0,2.56.72,4.53,4.53,0,0,0,2.7-.72,3.46,3.46,0,0,0,1.29-2,16.63,16.63,0,0,0,.17-3.23,5.2,5.2,0,0,1-4.12,1.94,5.6,5.6,0,0,1-4.78-2.2,8.56,8.56,0,0,1-1.67-5.31,9.54,9.54,0,0,1,.76-3.94,6.29,6.29,0,0,1,2.25-2.77,6,6,0,0,1,3.44-1,5.35,5.35,0,0,1,4.33,2.12v-1.79H749v13a12.33,12.33,0,0,1-.71,4.93,5.21,5.21,0,0,1-2.25,2.39,7.74,7.74,0,0,1-3.78.83,7.14,7.14,0,0,1-4.3-1.19A4,4,0,0,1,736.47,127.52Zm2.1-8.94a6.39,6.39,0,0,0,1.15,4.28,3.8,3.8,0,0,0,5.83,0,7.84,7.84,0,0,0,0-8.32,3.7,3.7,0,0,0-2.91-1.38,3.64,3.64,0,0,0-2.85,1.38A6,6,0,0,0,738.57,118.58Z"/><path d="M761.55,119.61l2.56-.24a5.44,5.44,0,0,0,.81,2.63,4.58,4.58,0,0,0,2.06,1.6,8.6,8.6,0,0,0,5.9.15,4,4,0,0,0,1.77-1.27,3.14,3.14,0,0,0,.58-1.77,2.72,2.72,0,0,0-.55-1.67,4.51,4.51,0,0,0-1.85-1.22,35.89,35.89,0,0,0-3.65-1,18.43,18.43,0,0,1-4-1.29,5.44,5.44,0,0,1-2.2-1.89,4.52,4.52,0,0,1-.72-2.55,4.89,4.89,0,0,1,.89-2.92,5.45,5.45,0,0,1,2.58-2.06,9.63,9.63,0,0,1,3.75-.69,10.16,10.16,0,0,1,4,.74,5.89,5.89,0,0,1,2.68,2.15,6.39,6.39,0,0,1,1,3.23l-2.6.22a4.29,4.29,0,0,0-1.41-3,5.54,5.54,0,0,0-3.59-1,5.78,5.78,0,0,0-3.59.91,2.67,2.67,0,0,0-1.12,2.17,2.4,2.4,0,0,0,.79,1.82,10.68,10.68,0,0,0,4.09,1.46,28.41,28.41,0,0,1,4.54,1.31,6.15,6.15,0,0,1,2.65,2.11,5,5,0,0,1,.86,2.92,5.57,5.57,0,0,1-.93,3.08,6.05,6.05,0,0,1-2.7,2.25,9.17,9.17,0,0,1-4,.81,12,12,0,0,1-4.66-.81,6.6,6.6,0,0,1-3-2.39A7,7,0,0,1,761.55,119.61Z"/><path d="M781.45,132V111.41h2.39v1.94a5.55,5.55,0,0,1,1.84-1.7,4.72,4.72,0,0,1,2.39-.57,6,6,0,0,1,3.37,1,6.24,6.24,0,0,1,2.2,2.77,10.82,10.82,0,0,1,0,8,6.26,6.26,0,0,1-5.81,3.78,5,5,0,0,1-2.27-.55,5.24,5.24,0,0,1-1.65-1.34v7.17Zm2.39-13.06a6.31,6.31,0,0,0,1.17,4.23,3.46,3.46,0,0,0,2.82,1.39,3.59,3.59,0,0,0,2.87-1.43,6.7,6.7,0,0,0,1.19-4.4,6.59,6.59,0,0,0-1.17-4.26,3.45,3.45,0,0,0-5.64.1,6.73,6.73,0,0,0-1.36,4.37Z"/><path d="M808.22,121.5l2.61.33a6.41,6.41,0,0,1-2.27,3.54,6.83,6.83,0,0,1-4.28,1.27,6.73,6.73,0,0,1-5.17-2A7.81,7.81,0,0,1,797.2,119a8.11,8.11,0,0,1,1.94-5.83,6.87,6.87,0,0,1,9.8,0,8.13,8.13,0,0,1,1.89,5.71v.79H799.74a5.49,5.49,0,0,0,1.38,3.75,4.08,4.08,0,0,0,3.11,1.32,3.73,3.73,0,0,0,2.39-.74A4.85,4.85,0,0,0,808.22,121.5ZM800,117.44h8.3a5,5,0,0,0-1-2.83,3.79,3.79,0,0,0-3.11-1.45,3.88,3.88,0,0,0-2.91,1.17A4.39,4.39,0,0,0,800,117.44Z"/><path d="M824.86,120.85l2.39.31a6.39,6.39,0,0,1-2.08,4,6,6,0,0,1-4.11,1.46,6.38,6.38,0,0,1-4.9-2,8,8,0,0,1-1.86-5.71,9.73,9.73,0,0,1,.81-4.23A5.68,5.68,0,0,1,817.5,112a7.38,7.38,0,0,1,3.56-.9,6.08,6.08,0,0,1,4,1.22,5.67,5.67,0,0,1,2,3.49l-2.39.38a4.13,4.13,0,0,0-1.24-2.25,3.1,3.1,0,0,0-2.15-.76,3.78,3.78,0,0,0-3.09,1.36,6.37,6.37,0,0,0-1.19,4.33,6.53,6.53,0,0,0,1.14,4.35,3.76,3.76,0,0,0,3,1.36,3.56,3.56,0,0,0,2.39-.91A4.77,4.77,0,0,0,824.86,120.85Z"/><path d="M829.15,108.66v-2.89h2.53v2.89Zm0,17.62V111.41h2.53v14.87Z"/><path d="M845.86,124.39a9.56,9.56,0,0,1-2.7,1.68,8,8,0,0,1-2.77.5,5.42,5.42,0,0,1-3.83-1.22,4.19,4.19,0,0,1-.81-5,4.24,4.24,0,0,1,1.31-1.45,6.21,6.21,0,0,1,1.82-.82,13.92,13.92,0,0,1,2.22-.38,24.49,24.49,0,0,0,4.5-.86v-.67a2.91,2.91,0,0,0-.72-2.18,4.34,4.34,0,0,0-2.87-.86,4.44,4.44,0,0,0-2.63.65,3.65,3.65,0,0,0-1.24,2.2l-2.39-.34a5.45,5.45,0,0,1,1.1-2.55,4.73,4.73,0,0,1,2.22-1.51,9.7,9.7,0,0,1,3.37-.53,8.64,8.64,0,0,1,3.11.46,4,4,0,0,1,1.75,1.12,3.93,3.93,0,0,1,.79,1.72,16,16,0,0,1,.12,2.39v3.38a29.92,29.92,0,0,0,.16,4.44,5.34,5.34,0,0,0,.62,1.77h-2.63A5,5,0,0,1,845.86,124.39Zm-.21-5.64a18.19,18.19,0,0,1-4.11,1,7.82,7.82,0,0,0-2.2.5,2,2,0,0,0-1,.81,2.21,2.21,0,0,0,.4,2.89,3.06,3.06,0,0,0,2.23.67,5.14,5.14,0,0,0,2.6-.64,3.93,3.93,0,0,0,1.65-1.75,6.27,6.27,0,0,0,.41-2.39Z"/><path d="M852.8,126.28V105.77h2.39v20.51Z"/><path d="M865.38,126.28l7.88-20.51h3l8.39,20.51h-3.09l-2.39-6.21h-8.6l-2.25,6.21Zm6-8.41h7l-2.17-5.69c-.67-1.73-1.15-3.16-1.46-4.26a28.16,28.16,0,0,1-1.1,3.92Z"/><path d="M896.74,126.28v-1.89a4.62,4.62,0,0,1-4.16,2.23,5.88,5.88,0,0,1-3.25-1,6.56,6.56,0,0,1-2.39-2.75,9.08,9.08,0,0,1-.81-4,10.13,10.13,0,0,1,.74-4,5.59,5.59,0,0,1,2.22-2.78,6.06,6.06,0,0,1,3.33-1,4.88,4.88,0,0,1,2.39.58,5,5,0,0,1,1.7,1.48v-7.34h2.39v20.51Zm-8-7.41a6.54,6.54,0,0,0,1.2,4.28,3.67,3.67,0,0,0,2.84,1.41,3.59,3.59,0,0,0,2.82-1.36,6.16,6.16,0,0,0,1.15-4.11,7.17,7.17,0,0,0-1.17-4.5,3.65,3.65,0,0,0-2.89-1.43,3.52,3.52,0,0,0-2.82,1.38,6.79,6.79,0,0,0-1.13,4.33Z"/><path d="M903.7,126.28V111.41H906v2.1a5.44,5.44,0,0,1,1.87-1.76,5.1,5.1,0,0,1,2.65-.67,4.67,4.67,0,0,1,2.7.69,3.76,3.76,0,0,1,1.51,1.91,5.29,5.29,0,0,1,4.59-2.6,4.44,4.44,0,0,1,3.39,1.22,5.12,5.12,0,0,1,1.2,3.77v10.21h-2.39v-9.37a7.64,7.64,0,0,0-.24-2.18,2.08,2.08,0,0,0-.89-1,2.57,2.57,0,0,0-1.5-.4,3.56,3.56,0,0,0-2.61,1,4.49,4.49,0,0,0-1.05,3.35v8.63h-2.51v-9.56a4.45,4.45,0,0,0-.62-2.39,2.39,2.39,0,0,0-2-.84,3.5,3.5,0,0,0-2,.55,3,3,0,0,0-1.29,1.65,8.62,8.62,0,0,0-.4,3.11v7.7Z"/><path d="M928.26,108.66v-2.89h2.53v2.89Zm0,17.62V111.41h2.53v14.87Z"/><path d="M934.84,126.28V111.41h2.27v2.13a5.31,5.31,0,0,1,4.78-2.39,6.15,6.15,0,0,1,2.39.48,4.23,4.23,0,0,1,1.67,1.26,5,5,0,0,1,.79,1.87,13.65,13.65,0,0,1,.15,2.39v9.13H944.5v-9.06a6.89,6.89,0,0,0-.29-2.39,2.37,2.37,0,0,0-1.05-1.22,3.27,3.27,0,0,0-1.75-.45,4,4,0,0,0-2.77,1,5.11,5.11,0,0,0-1.32,4v8.1Z"/><path d="M951.38,108.66v-2.89h2.54v2.89Zm0,17.62V111.41h2.54v14.87Z"/><path d="M957.39,121.86l2.39-.41a3.49,3.49,0,0,0,1.17,2.39,4,4,0,0,0,2.68.82,3.91,3.91,0,0,0,2.58-.72,2.06,2.06,0,0,0,.83-1.65,1.45,1.45,0,0,0-.74-1.34,10.09,10.09,0,0,0-2.55-.86,26.92,26.92,0,0,1-3.85-1.22,3.62,3.62,0,0,1-2.18-3.42,3.82,3.82,0,0,1,1.7-3.23,4.5,4.5,0,0,1,1.6-.74,7.66,7.66,0,0,1,2.18-.31,8.62,8.62,0,0,1,3.06.5,4.49,4.49,0,0,1,2,1.37,5.34,5.34,0,0,1,.86,2.39l-2.39.33a2.77,2.77,0,0,0-1-1.79,3.75,3.75,0,0,0-2.39-.65,4,4,0,0,0-2.39.58,1.58,1.58,0,0,0-.74,1.34,1.56,1.56,0,0,0,.28.88,2.53,2.53,0,0,0,1,.67c.24.1,1,.31,2.23.65a27.32,27.32,0,0,1,3.73,1.17,3.71,3.71,0,0,1,1.67,1.31,4,4,0,0,1,.6,2.08,4.22,4.22,0,0,1-.74,2.39,4.78,4.78,0,0,1-2.13,1.72,7.52,7.52,0,0,1-3.13.63,7.26,7.26,0,0,1-4.43-1.22A5.61,5.61,0,0,1,957.39,121.86Z"/><path d="M978.9,124l.36,2.23a8.69,8.69,0,0,1-1.91.24,4.36,4.36,0,0,1-2.13-.43,2.39,2.39,0,0,1-1.05-1.15A8.7,8.7,0,0,1,974,122v-8.63h-1.86v-2H974v-3.75l2.39-1.51v5.19h2.56v2h-2.56V122a3.44,3.44,0,0,0,.14,1.39,1.05,1.05,0,0,0,.43.5,1.74,1.74,0,0,0,.87.17A7.94,7.94,0,0,0,978.9,124Z"/><path d="M980.49,126.28V111.41h2.25v2.39a6.22,6.22,0,0,1,1.6-2.1,2.71,2.71,0,0,1,1.63-.5,4.73,4.73,0,0,1,2.6.81l-.88,2.39a3.36,3.36,0,0,0-1.84-.55,2.53,2.53,0,0,0-2.39,1.89,8.63,8.63,0,0,0-.43,2.94v7.77Z"/><path d="M1000.41,124.39a9.83,9.83,0,0,1-2.68,1.68,8.06,8.06,0,0,1-2.8.5,5.22,5.22,0,0,1-3.75-1.22,4.3,4.3,0,0,1-.84-5,4.17,4.17,0,0,1,1.32-1.45,6.16,6.16,0,0,1,1.81-.82,14,14,0,0,1,2.23-.38,24,24,0,0,0,4.52-.86v-.67a3,3,0,0,0-.72-2.18,4.34,4.34,0,0,0-2.87-.86,4.44,4.44,0,0,0-2.63.65,3.65,3.65,0,0,0-1.24,2.2l-2.39-.34a5.88,5.88,0,0,1,1.1-2.55,4.88,4.88,0,0,1,2.22-1.51,9.63,9.63,0,0,1,3.37-.53,8.64,8.64,0,0,1,3.11.46,3.94,3.94,0,0,1,1.74,1.12,3.82,3.82,0,0,1,.79,1.72,16,16,0,0,1,.12,2.39v3.38a31.34,31.34,0,0,0,.17,4.44,4.85,4.85,0,0,0,.65,1.77H1001A4.78,4.78,0,0,1,1000.41,124.39Zm-.24-5.57a18.44,18.44,0,0,1-4.14,1,8.78,8.78,0,0,0-2.2.5,2.15,2.15,0,0,0-1,.81,2.24,2.24,0,0,0,.41,2.9,3.12,3.12,0,0,0,2.22.67,5.29,5.29,0,0,0,2.61-.65,3.88,3.88,0,0,0,1.67-1.75,6.27,6.27,0,0,0,.41-2.39Z"/><path d="M1012.82,124l.36,2.23a8.85,8.85,0,0,1-1.92.24,4.32,4.32,0,0,1-2.12-.43,2.46,2.46,0,0,1-1.06-1.15,8.44,8.44,0,0,1-.21-2.92v-8.63H1006v-2h1.84v-3.75l2.51-1.51v5.19h2.53v2h-2.65V122a4.62,4.62,0,0,0,.12,1.39.89.89,0,0,0,.45.5,1.72,1.72,0,0,0,.86.17A5.32,5.32,0,0,0,1012.82,124Z"/><path d="M1014.9,108.66v-2.89h2.51v2.89Zm0,17.62V111.41h2.51v14.87Z"/><path d="M1025.6,126.28l-5.67-14.87h2.65l3.28,8.92c.33,1,.64,2,1,3,.22-.79.53-1.72.94-2.82l3.3-9.09h2.6L1028,126.28Z"/><path d="M1046.64,121.5l2.6.33a6.53,6.53,0,0,1-2.39,3.54,7.7,7.7,0,0,1-9.44-.76,7.82,7.82,0,0,1-1.92-5.62,8.15,8.15,0,0,1,1.94-5.83,6.46,6.46,0,0,1,5-2.08,6.39,6.39,0,0,1,4.78,2,8.09,8.09,0,0,1,1.89,5.71v.79H1038a5.66,5.66,0,0,0,1.38,3.75,4.14,4.14,0,0,0,3.13,1.32,3.92,3.92,0,0,0,2.39-.74A4.79,4.79,0,0,0,1046.64,121.5Zm-8.3-4.06h8.32a5,5,0,0,0-1-2.83,3.82,3.82,0,0,0-3.13-1.45,4,4,0,0,0-2.92,1.17A4.62,4.62,0,0,0,1038.34,117.44Z"/><path d="M1061,126.28V105.77h9.11a11.78,11.78,0,0,1,4.16.55,4.6,4.6,0,0,1,2.39,1.93,6.09,6.09,0,0,1,.83,3.11,5.21,5.21,0,0,1-1.41,3.68,7.16,7.16,0,0,1-4.37,1.92,7.34,7.34,0,0,1,1.65,1,14.81,14.81,0,0,1,2.24,2.75l3.59,5.57h-3.51L1073,122c-.79-1.24-1.43-2.17-2-2.84a6.23,6.23,0,0,0-1.39-1.37,4.31,4.31,0,0,0-1.24-.55,9.52,9.52,0,0,0-1.51,0h-3.15v9.11Zm2.7-11.45h5.86a8.72,8.72,0,0,0,2.91-.41,3.09,3.09,0,0,0,1.58-1.22,3.31,3.31,0,0,0,.55-1.84,3.08,3.08,0,0,0-1.05-2.39,5,5,0,0,0-3.35-1h-6.5Z"/><path d="M1092.69,121.5l2.61.33a6.5,6.5,0,0,1-2.39,3.54,6.85,6.85,0,0,1-4.28,1.27,6.72,6.72,0,0,1-5.17-2,7.81,7.81,0,0,1-1.91-5.62,8.11,8.11,0,0,1,1.94-5.83,6.45,6.45,0,0,1,5-2.08,6.25,6.25,0,0,1,4.78,2,8.14,8.14,0,0,1,1.91,5.71v.79h-11a5.49,5.49,0,0,0,1.38,3.75,4.08,4.08,0,0,0,3.11,1.32,3.73,3.73,0,0,0,2.39-.74A4.79,4.79,0,0,0,1092.69,121.5Zm-8.27-4.06h8.27a5,5,0,0,0-1-2.83,3.77,3.77,0,0,0-3.1-1.45,3.9,3.9,0,0,0-2.92,1.17,4.45,4.45,0,0,0-1.27,3.11Z"/><path d="M1098.67,127.52l2.39.36a2.39,2.39,0,0,0,.84,1.65,4,4,0,0,0,2.58.72,4.53,4.53,0,0,0,2.7-.72,3.41,3.41,0,0,0,1.29-2,16.63,16.63,0,0,0,.17-3.23,5.18,5.18,0,0,1-4.11,1.94,5.58,5.58,0,0,1-4.79-2.2,8.5,8.5,0,0,1-1.67-5.31,9.39,9.39,0,0,1,.77-3.94,6.2,6.2,0,0,1,2.24-2.77,6,6,0,0,1,3.45-1,5.33,5.33,0,0,1,4.32,2.12v-1.79h2.39v13a12.35,12.35,0,0,1-.69,4.93,5.16,5.16,0,0,1-2.25,2.39,7.68,7.68,0,0,1-3.77.83,7.15,7.15,0,0,1-4.31-1.19A4.09,4.09,0,0,1,1098.67,127.52Zm2.08-8.94a6.46,6.46,0,0,0,1.17,4.28,3.86,3.86,0,0,0,5.43.41,5.22,5.22,0,0,0,.4-.41,6.25,6.25,0,0,0,1.18-4.18,6.32,6.32,0,0,0-1.22-4.14,3.73,3.73,0,0,0-2.92-1.38,3.54,3.54,0,0,0-2.85,1.38A5.86,5.86,0,0,0,1100.75,118.58Z"/><path d="M1115.74,108.66v-2.89h2.54v2.89Zm0,17.62V111.41h2.54v14.87Z"/><path d="M1121.82,118.85a7.61,7.61,0,0,1,2.39-6.12,6.94,6.94,0,0,1,4.78-1.65,6.7,6.7,0,0,1,5,2,7.74,7.74,0,0,1,1.94,5.57,10,10,0,0,1-.87,4.52,6.22,6.22,0,0,1-2.39,2.54,7.35,7.35,0,0,1-3.58.93,6.65,6.65,0,0,1-5-2A7.92,7.92,0,0,1,1121.82,118.85Zm2.6,0a6.32,6.32,0,0,0,1.24,4.28,4,4,0,0,0,3.14,1.43,4,4,0,0,0,3.13-1.43,6.79,6.79,0,0,0,1.24-4.36,6.26,6.26,0,0,0-1.34-4.18,4.12,4.12,0,0,0-5.8-.44h0a2.5,2.5,0,0,0-.43.43A6.18,6.18,0,0,0,1124.42,118.85Z"/><path d="M1139.37,126.28V111.41h2.27v2.13a5.26,5.26,0,0,1,4.78-2.39,6.15,6.15,0,0,1,2.39.48,4.24,4.24,0,0,1,1.7,1.26,6.06,6.06,0,0,1,.79,1.87,15.88,15.88,0,0,1,.12,2.39v9.13h-2.51v-9.06a6.89,6.89,0,0,0-.29-2.39,2.37,2.37,0,0,0-1-1.22,3.27,3.27,0,0,0-1.75-.45,4.12,4.12,0,0,0-2.8,1,5.15,5.15,0,0,0-1.17,3.9v8.1Z"/></svg>