<svg id="Layer_1" data-name="Layer 1" xmlns="http://www.w3.org/2000/svg" xmlns:xlink="http://www.w3.org/1999/xlink" viewBox="0 0 1158 150"><defs><style>.cls-1{fill:none;}.cls-2{fill:#ce6111;}.cls-3{fill:#ebb583;}.cls-4{clip-path:url(#clip-path);}.cls-5{clip-path:url(#clip-path-2);}</style><clipPath id="clip-path"><circle class="cls-1" cx="47.4" cy="62.74" r="17.59"/></clipPath><clipPath id="clip-path-2"><path class="cls-1" d="M31.46,78.5s19.82-3.66,86.25,68.84H0S6.49,97.44,31.46,78.5Z"/></clipPath></defs><circle class="cls-2" cx="132.3" cy="21.32" r="17.59"/><path class="cls-2" d="M158.58,84.93l-6.4,24.17h29.25s-4-30.2-4.79-34.62C168.78,38.5,144,43,144,43L132.11,59.78,120.3,43S95.55,38.5,87.77,74.48c-.84,4.42-4.83,34.62-4.83,34.62h29.25l-6.14-24.17Z"/><polygon class="cls-2" points="92.37 121.09 119.57 121.09 130.98 130.41 133.72 130.41 145.31 121.24 172.11 121.24 181.36 112.28 83.01 112.28 92.37 121.09"/><polygon class="cls-2" points="101.51 130.23 163.04 130.23 146.88 147.34 117.71 147.34 101.51 130.23"/><circle class="cls-3" cx="217.15" cy="62.74" r="17.59"/><path class="cls-3" d="M233.13,78.5s-19.82-3.66-86.25,68.84H264.42S258.06,97.44,233.13,78.5Z"/><g class="cls-4"><rect class="cls-2" x="15.22" y="54.6" width="48.73" height="3.03" transform="translate(-28.12 44.61) rotate(-45.15)"/><rect class="cls-2" x="18.96" y="58.35" width="48.73" height="3.03" transform="translate(-29.67 48.37) rotate(-45.15)"/><rect class="cls-2" x="22.74" y="62.12" width="48.73" height="3.03" transform="translate(-31.23 52.15) rotate(-45.15)"/><rect class="cls-2" x="26.52" y="65.93" width="48.73" height="3.03" transform="translate(-32.82 55.96) rotate(-45.15)"/><rect class="cls-2" x="30.36" y="69.67" width="48.73" height="3.03" transform="translate(-34.33 59.78) rotate(-45.15)"/><rect class="cls-2" x="34.14" y="73.48" width="48.73" height="3.03" transform="translate(-35.92 63.59) rotate(-45.15)"/><rect class="cls-2" x="11.34" y="50.8" width="48.73" height="3.03" transform="translate(-26.57 40.74) rotate(-45.15)"/></g><g class="cls-5"><rect class="cls-2" x="-29.39" y="98.66" width="94.95" height="3.03" transform="translate(-65.8 42.51) rotate(-45.26)"/><rect class="cls-2" x="-25.58" y="102.41" width="94.95" height="3.03" transform="translate(-67.34 46.33) rotate(-45.26)"/><rect class="cls-2" x="-21.8" y="106.16" width="94.95" height="3.03" transform="translate(-68.88 50.12) rotate(-45.26)"/><rect class="cls-2" x="-17.98" y="109.91" width="94.95" height="3.03" transform="translate(-70.42 53.94) rotate(-45.26)"/><rect class="cls-2" x="-14.2" y="113.7" width="94.95" height="3.03" transform="translate(-71.99 57.75) rotate(-45.26)"/><rect class="cls-2" x="-10.47" y="117.51" width="94.95" height="3.03" transform="translate(-73.59 61.52) rotate(-45.26)"/><rect class="cls-2" x="-33.21" y="94.87" width="94.95" height="3.03" transform="translate(-64.24 38.67) rotate(-45.26)"/><rect class="cls-2" x="-2.82" y="125.02" width="94.95" height="3.03" transform="translate(-76.66 69.19) rotate(-45.26)"/><rect class="cls-2" x="0.96" y="128.77" width="94.95" height="3.03" transform="translate(-78.2 72.98) rotate(-45.26)"/><rect class="cls-2" x="4.8" y="132.54" width="94.95" height="3.03" transform="translate(-79.74 76.83) rotate(-45.26)"/><rect class="cls-2" x="8.59" y="136.31" width="94.95" height="3.03" transform="translate(-81.3 80.64) rotate(-45.26)"/><rect class="cls-2" x="12.38" y="140.04" width="94.95" height="3.03" transform="translate(-82.83 84.43) rotate(-45.26)"/><rect class="cls-2" x="16.2" y="143.79" width="94.95" height="3.03" transform="translate(-84.36 88.25) rotate(-45.26)"/><rect class="cls-2" x="-6.6" y="121.18" width="94.95" height="3.03" transform="translate(-75.05 65.37) rotate(-45.26)"/><rect class="cls-2" x="23.82" y="151.31" width="94.95" height="3.03" transform="translate(-87.44 95.89) rotate(-45.26)"/><rect class="cls-2" x="27.51" y="155.16" width="94.95" height="3.03" transform="translate(-89.09 99.66) rotate(-45.26)"/><rect class="cls-2" x="31.36" y="158.86" width="94.95" height="3.03" transform="translate(-90.58 103.49) rotate(-45.26)"/><rect class="cls-2" x="35.18" y="162.65" width="94.95" height="3.03" transform="translate(-92.14 107.32) rotate(-45.26)"/><rect class="cls-2" x="38.96" y="166.37" width="94.95" height="3.03" transform="translate(-93.66 111.1) rotate(-45.26)"/><rect class="cls-2" x="42.75" y="170.15" width="94.95" height="3.03" transform="translate(-95.22 114.91) rotate(-45.26)"/><rect class="cls-2" x="20" y="147.57" width="94.95" height="3.03" transform="translate(-85.92 92.08) rotate(-45.26)"/></g><path d="M332.14,43.35H315V38.78a86.88,86.88,0,0,0,12.41-2.29.37.37,0,0,0,.2-.59l-1-1.32a.38.38,0,0,0-.38-.14,128.83,128.83,0,0,1-27.83,2.77.34.34,0,0,0-.32.16.38.38,0,0,0,0,.36l.69,1.65a.38.38,0,0,0,.35.23c5.25-.06,9.73-.24,13.3-.53v4.34h-17a.38.38,0,0,0-.38.37v1.56a.38.38,0,0,0,.38.37h14.53a28.44,28.44,0,0,1-14.87,8.14.37.37,0,0,0-.28.25.37.37,0,0,0,.07.36l1.09,1.29a.37.37,0,0,0,.37.13,32.47,32.47,0,0,0,4.62-1.43.39.39,0,0,0-.16.3V71.94a.38.38,0,0,0,.38.38h1.72a.38.38,0,0,0,.37-.38V69.81h20.69v2.13a.38.38,0,0,0,.38.38H326a.38.38,0,0,0,.37-.38V54.76a.37.37,0,0,0-.37-.37H314.84v-5.7a127.46,127.46,0,0,1,16.29,7.36.38.38,0,0,0,.5-.13l.83-1.32a.38.38,0,0,0,0-.29.36.36,0,0,0-.18-.24A107.63,107.63,0,0,0,315,46.2v-.55h17.14a.36.36,0,0,0,.37-.37V43.73A.37.37,0,0,0,332.14,43.35Zm-8.21,20V67.6l-20.69,0V63.33ZM303.24,61V56.82h20.69V61Zm9.13-14.39v7.79H301.1A31.36,31.36,0,0,0,312.37,46.6Z"/><path d="M351.78,41.61a.39.39,0,0,0,.27.11h0a.4.4,0,0,0,.27-.12l1.13-1.28a.38.38,0,0,0,.19-.33v0a.38.38,0,0,0-.22-.34,33.55,33.55,0,0,0-6.41-5,.35.35,0,0,0-.45.06l-1.16,1.15a.4.4,0,0,0-.11.31.38.38,0,0,0,.17.27A34.84,34.84,0,0,1,351.78,41.61Z"/><path d="M382.49,57.81l-.08,0a20.35,20.35,0,0,1-8.35-8.07h7.79a.38.38,0,0,0,.38-.38V47.76a.38.38,0,0,0-.38-.38H374.5V42h6a.37.37,0,0,0,.37-.37V40.09a.38.38,0,0,0-.37-.37h-6V34.81a.38.38,0,0,0-.38-.38H372.4a.38.38,0,0,0-.37.38v4.91h-8.4V34.81a.38.38,0,0,0-.38-.38h-1.72a.38.38,0,0,0-.37.38v4.91h-6a.38.38,0,0,0-.37.37v1.49a.37.37,0,0,0,.37.37h6v5.43h-7.39a.38.38,0,0,0-.38.38v1.52a.38.38,0,0,0,.38.37h7.7a23.78,23.78,0,0,1-8.77,8.45.37.37,0,0,0-.19.25.42.42,0,0,0,.07.31l1,1.26a.4.4,0,0,0,.49.09,27.77,27.77,0,0,0,4.72-3.48V68.2a3.42,3.42,0,0,0,.82,2.6.27.27,0,0,0,.08.07,5.17,5.17,0,0,0,2.79.83h13.78a3.36,3.36,0,0,0,3.13-1.84,11.48,11.48,0,0,0,1.06-4.3.36.36,0,0,0-.23-.36l-1.65-.7a.37.37,0,0,0-.34,0,.36.36,0,0,0-.18.28c-.25,2.62-.58,4.4-1.41,4.56a64.75,64.75,0,0,1-7.58.19,53.64,53.64,0,0,1-7.41-.22c-.11,0-.43-.12-.43-.89V63.66h14.46a.38.38,0,0,0,.38-.37v-7.2a24.42,24.42,0,0,0,5.19,3.79.38.38,0,0,0,.49-.12l.88-1.26a.38.38,0,0,0,.15-.3v0A.36.36,0,0,0,382.49,57.81Zm-8.88-1.32v4.87l-12.46,0v-4.9Zm-9.43-6.77h7.16a19.59,19.59,0,0,0,2.87,4.47l-13.06.09A19.36,19.36,0,0,0,364.18,49.72Zm-.55-2.34V42H372v5.4Z"/><path d="M351.22,52.48a.39.39,0,0,0,.27.11h0a.34.34,0,0,0,.27-.13L353,51.07a.37.37,0,0,0,0-.51,59.24,59.24,0,0,0-6.85-5.69.38.38,0,0,0-.49.06l-1.16,1.25a.41.41,0,0,0-.1.3.4.4,0,0,0,.16.26A46.53,46.53,0,0,1,351.22,52.48Z"/><path d="M350.75,55.29a.37.37,0,0,0-.34,0,.37.37,0,0,0-.21.26,49.94,49.94,0,0,1-5.81,15.09.39.39,0,0,0,.1.49L346,72.24a.35.35,0,0,0,.22.08h.08a.38.38,0,0,0,.25-.18,54.7,54.7,0,0,0,6-15.57.38.38,0,0,0-.18-.41Z"/><path d="M411.24,42.22h10v5.86h-8.18a.37.37,0,0,0-.37.37V50a.38.38,0,0,0,.37.38h18.8a.38.38,0,0,0,.38-.38V48.45a.37.37,0,0,0-.38-.37h-8.15V42.22h10a.37.37,0,0,0,.37-.38V40.22a.37.37,0,0,0-.37-.37h-10v-5a.38.38,0,0,0-.38-.38h-1.71a.38.38,0,0,0-.38.38v5h-10a.38.38,0,0,0-.37.37v1.62A.38.38,0,0,0,411.24,42.22Z"/><path d="M434.11,55.58h-4.69v-4a.37.37,0,0,0-.37-.38h-1.72a.37.37,0,0,0-.37.38v4H410.81a.37.37,0,0,0-.37.37v1.69a.38.38,0,0,0,.37.37H427V69a.83.83,0,0,1-.24.65,6.31,6.31,0,0,1-2.3.23H420a.38.38,0,0,0-.31.16.4.4,0,0,0,0,.35l.73,1.79a.38.38,0,0,0,.35.23h2.86l.71,0a16.15,16.15,0,0,0,3.08-.3A2.73,2.73,0,0,0,428.86,71a3,3,0,0,0,.56-1.86V58h4.69a.38.38,0,0,0,.37-.37V56A.37.37,0,0,0,434.11,55.58Z"/><path d="M412.47,53.3l-.33-1.68a.38.38,0,0,0-.59-.24c-1.32.95-2.85,1.87-4.23,2.69V46.58h4.25a.38.38,0,0,0,.38-.38V44.59a.38.38,0,0,0-.38-.38h-4.31V34.87a.37.37,0,0,0-.38-.37h-1.75a.36.36,0,0,0-.37.37v9.24h-3.34c.3-1.74.52-3.52.65-5.28a.38.38,0,0,0-.38-.4h-1.75a.37.37,0,0,0-.37.35,44.85,44.85,0,0,1-3,14,.37.37,0,0,0,.17.47l1.59.83a.37.37,0,0,0,.31,0,.35.35,0,0,0,.21-.22A51.88,51.88,0,0,0,401,46.58h3.84V55.5a81.53,81.53,0,0,1-8.4,4.24.37.37,0,0,0-.19.48l.66,1.62a.36.36,0,0,0,.21.21.39.39,0,0,0,.3,0c2.84-1.37,5.22-2.6,7.42-3.83v14a.38.38,0,0,0,.38.38H407a.38.38,0,0,0,.37-.38V56.88c.92-.6,1.8-1.16,2.66-1.7l2.33-1.49A.38.38,0,0,0,412.47,53.3Z"/><path d="M421.1,66.35a.29.29,0,0,0-.08-.14A34.68,34.68,0,0,0,416,59.1a.37.37,0,0,0-.49-.05L414,60a.37.37,0,0,0-.15.26.35.35,0,0,0,.09.29,37.69,37.69,0,0,1,4.84,7,.39.39,0,0,0,.23.19h.1a.38.38,0,0,0,.19,0l1.62-1A.36.36,0,0,0,421.1,66.35Z"/><path d="M469.59,54.15h-9.85a53,53,0,0,0,.41-5.52h8a.38.38,0,0,0,.38-.38V35.93a.38.38,0,0,0-.38-.38h-18a.37.37,0,0,0-.37.38V48.15a.37.37,0,0,0,.37.38h7.38c-.07,1.88-.2,3.7-.38,5.53h-9a.37.37,0,0,0-.38.37V56a.38.38,0,0,0,.38.38H457A16.74,16.74,0,0,1,454,64a20.65,20.65,0,0,1-6.72,6.33.36.36,0,0,0-.18.24.39.39,0,0,0,.07.3l1,1.39a.39.39,0,0,0,.31.15.31.31,0,0,0,.18,0,22.09,22.09,0,0,0,10.82-16h7.76c-.16,3.35-.39,6.23-.67,8.6a11.74,11.74,0,0,1-.92,4.19,1.37,1.37,0,0,1-1.15.57h-6.15a.38.38,0,0,0-.35.5l.6,1.65a.37.37,0,0,0,.35.25h5.27a3.93,3.93,0,0,0,4.11-2.48A79.1,79.1,0,0,0,470,54.53a.36.36,0,0,0-.11-.26A.36.36,0,0,0,469.59,54.15Zm-17.3-7.86v-8.4h13.79v8.4Z"/><path d="M484.23,34.38a.38.38,0,0,0-.26-.11h-1.72a.37.37,0,0,0-.38.37V68.22a1.45,1.45,0,0,1-.53,1.18,8.06,8.06,0,0,1-3.49.45h-2.57a.37.37,0,0,0-.36.49l.53,1.68a.37.37,0,0,0,.36.26h4.75c1.68,0,3.68-.7,3.68-4l.1-33.6A.36.36,0,0,0,484.23,34.38Z"/><rect x="473.25" y="37.21" width="2.47" height="26.55" rx="0.38"/><path d="M516.1,38.88h20.42a.36.36,0,0,0,.27-.12.34.34,0,0,0,.1-.28l-.13-1.62a.38.38,0,0,0-.37-.35H516.1a.37.37,0,0,0-.37.38v1.62A.37.37,0,0,0,516.1,38.88Z"/><path d="M502.07,45.26a.37.37,0,0,0,.29.13.36.36,0,0,0,.2-.06,56.27,56.27,0,0,0,11.05-9.55.4.4,0,0,0,.09-.3.39.39,0,0,0-.17-.26l-1.49-1a.38.38,0,0,0-.49.07A45.47,45.47,0,0,1,501,43.41a.39.39,0,0,0-.17.26.4.4,0,0,0,.09.3Z"/><path d="M538.88,47.51a.37.37,0,0,0-.28-.13H514.48a.38.38,0,0,0-.37.38v1.58a.38.38,0,0,0,.37.38h15V69a.68.68,0,0,1-.32.67,19.28,19.28,0,0,1-4.23.22h-3.64a.37.37,0,0,0-.31.17.37.37,0,0,0,0,.34L521.6,72a.36.36,0,0,0,.35.24h6.69a3.45,3.45,0,0,0,3.17-3.68V49.72h6.63a.38.38,0,0,0,.37-.34L539,47.8A.36.36,0,0,0,538.88,47.51Z"/><path d="M514.55,44.39a.36.36,0,0,0-.19-.23L513,43.4a.38.38,0,0,0-.5.12,55.36,55.36,0,0,1-11.65,12.83.39.39,0,0,0-.06.52l1.06,1.42a.37.37,0,0,0,.25.15.38.38,0,0,0,.29-.09,66.24,66.24,0,0,0,5.43-5.17V72a.38.38,0,0,0,.37.38h1.72a.38.38,0,0,0,.38-.38V50.47a59.84,59.84,0,0,0,4.23-5.78A.4.4,0,0,0,514.55,44.39Z"/><path d="M571.92,62.7l-.36-1.42a.39.39,0,0,0-.5-.26l-7.95,3.1V51.83h5.77a.37.37,0,0,0,.37-.37V49.87a.36.36,0,0,0-.37-.37h-5.77V38.78h7.39a.38.38,0,0,0,.37-.37V36.82a.37.37,0,0,0-.37-.37H552.36a.36.36,0,0,0-.37.37v1.59a.37.37,0,0,0,.37.37h8.31V65l-3.9,1.44V46a.38.38,0,0,0-.38-.38h-1.72a.38.38,0,0,0-.37.38V67.28l-2.62.87a.36.36,0,0,0-.23.22.4.4,0,0,0,0,.32l.86,1.52a.39.39,0,0,0,.33.19l.12,0c5.7-1.94,12.07-4.38,18.92-7.24A.39.39,0,0,0,571.92,62.7Z"/><path d="M589.79,70.66a.35.35,0,0,0-.21-.25,25.19,25.19,0,0,1-9.34-7.31A34.46,34.46,0,0,0,586,43.87h2.6a.38.38,0,0,0,.37-.38V41.94a.38.38,0,0,0-.37-.37H576.48c.58-2.13,1.06-4.32,1.43-6.5a.38.38,0,0,0-.29-.43l-1.75-.4a.39.39,0,0,0-.3.06.4.4,0,0,0-.16.26,47.43,47.43,0,0,1-5.83,17.57.38.38,0,0,0,.09.48L571,53.67a.41.41,0,0,0,.3.07.37.37,0,0,0,.26-.18,45.43,45.43,0,0,0,4.25-9.72h7.77a31.85,31.85,0,0,1-4.86,17A35.85,35.85,0,0,1,575.22,52a.38.38,0,0,0-.18-.25.47.47,0,0,0-.31,0l-1.58.56a.37.37,0,0,0-.24.45,42.75,42.75,0,0,0,4.24,10.31,28.62,28.62,0,0,1-10.34,7.62.35.35,0,0,0-.2.23.37.37,0,0,0,0,.31l.9,1.46a.37.37,0,0,0,.32.17.4.4,0,0,0,.15,0,32.35,32.35,0,0,0,10.41-7.73,28.58,28.58,0,0,0,9.76,7.4.37.37,0,0,0,.45-.11L589.72,71A.34.34,0,0,0,589.79,70.66Z"/><path d="M639.89,69H609.1a1.56,1.56,0,0,1-1-.3.83.83,0,0,1-.36-.75v-30h31.83a.37.37,0,0,0,.38-.37V35.93a.38.38,0,0,0-.38-.38h-36.7a.38.38,0,0,0-.38.38v1.62a.37.37,0,0,0,.38.37h2.56V67.73a3.71,3.71,0,0,0,1,2.65,3.2,3.2,0,0,0,2.33,1h31.14a.38.38,0,0,0,.38-.37V69.36A.38.38,0,0,0,639.89,69Z"/><path d="M609.56,65.31a.34.34,0,0,0,.08.29L610.76,67a.37.37,0,0,0,.29.14.36.36,0,0,0,.22-.07,83.22,83.22,0,0,0,13-11.21c3.56,3.31,7.31,7,11.18,11.06a.35.35,0,0,0,.26.12.37.37,0,0,0,.27-.11l1.26-1.22a.37.37,0,0,0,0-.52c-4-4.22-7.7-7.93-11-11a81.66,81.66,0,0,0,9-12.34.37.37,0,0,0-.12-.51l-1.39-.86a.41.41,0,0,0-.29,0,.36.36,0,0,0-.23.17,85.27,85.27,0,0,1-8.89,11.92C620.77,49.2,617,46,613,42.8a.38.38,0,0,0-.49,0L611.29,44a.4.4,0,0,0-.12.29.42.42,0,0,0,.14.28c4,3.2,7.8,6.44,11.3,9.63a82.7,82.7,0,0,1-12.89,10.88A.35.35,0,0,0,609.56,65.31Z"/><path d="M675.59,62.7l-.37-1.42A.31.31,0,0,0,675,61a.37.37,0,0,0-.31,0l-7.94,3.1V51.83h5.77a.38.38,0,0,0,.37-.37V49.87a.37.37,0,0,0-.37-.37h-5.77V38.78h7.39a.38.38,0,0,0,.37-.37V36.82a.37.37,0,0,0-.37-.37H656a.37.37,0,0,0-.38.37v1.59a.38.38,0,0,0,.38.37h8.31V65l-3.91,1.44V46a.37.37,0,0,0-.37-.38h-1.72A.37.37,0,0,0,658,46V67.28l-2.62.87a.38.38,0,0,0-.21.54l.86,1.52a.37.37,0,0,0,.33.19l.12,0c5.71-1.94,12.07-4.38,18.92-7.24A.39.39,0,0,0,675.59,62.7Z"/><path d="M693.46,70.66a.38.38,0,0,0-.21-.25,25.18,25.18,0,0,1-9.54-7.34,34.48,34.48,0,0,0,5.8-19.23h2.6a.38.38,0,0,0,.37-.38V41.91a.38.38,0,0,0-.37-.38H680.05a59.72,59.72,0,0,0,1.42-6.5.37.37,0,0,0-.28-.42l-1.75-.4a.39.39,0,0,0-.3.06.35.35,0,0,0-.16.26,47.43,47.43,0,0,1-5.83,17.57.36.36,0,0,0,.09.48l1.32,1.05a.36.36,0,0,0,.3.08.4.4,0,0,0,.26-.18,45.29,45.29,0,0,0,4.25-9.73h7.77a31.91,31.91,0,0,1-4.76,17.07A35.46,35.46,0,0,1,678.89,52a.37.37,0,0,0-.19-.25.44.44,0,0,0-.3,0l-1.58.56a.37.37,0,0,0-.24.45,43.13,43.13,0,0,0,4.23,10.31,28.5,28.5,0,0,1-10.33,7.62.4.4,0,0,0-.21.23.37.37,0,0,0,0,.31l.89,1.46a.39.39,0,0,0,.32.17.41.41,0,0,0,.16,0,32.35,32.35,0,0,0,10.41-7.73,28.58,28.58,0,0,0,9.76,7.4.37.37,0,0,0,.45-.11L693.39,71A.37.37,0,0,0,693.46,70.66Z"/><path d="M743.46,49.13h-4.25V42.74a.38.38,0,0,0-.37-.38h-1.72a.38.38,0,0,0-.38.38V49.2h-13a.38.38,0,0,0-.38.37v1.59a.37.37,0,0,0,.38.37h13V69c0,.65-.26.78-.68.78h-6.94a.37.37,0,0,0-.3.16.4.4,0,0,0-.05.35L729.4,72a.38.38,0,0,0,.35.24h7.08a3.5,3.5,0,0,0,1.52-.75,3.27,3.27,0,0,0,.86-2.69V51.53h4.25a.37.37,0,0,0,.38-.37V49.51A.38.38,0,0,0,743.46,49.13Z"/><path d="M743.8,40.52V38.9a.37.37,0,0,0-.37-.37H728.16a34.6,34.6,0,0,0-1.91-4.26.39.39,0,0,0-.23-.19.35.35,0,0,0-.28,0l-1.59.89a.38.38,0,0,0-.18.23.35.35,0,0,0,0,.28,20.89,20.89,0,0,1,1.46,3H710.42a.38.38,0,0,0-.37.37v15A33.88,33.88,0,0,1,709,63.7a29.91,29.91,0,0,1-3.27,7,.37.37,0,0,0,.09.49l1.45,1.16a.4.4,0,0,0,.23.08h.06a.33.33,0,0,0,.25-.16,26.93,26.93,0,0,0,3.63-7.75A39.32,39.32,0,0,0,712.55,54V40.9h30.88A.37.37,0,0,0,743.8,40.52Z"/><path d="M730.73,64.31h.11a.36.36,0,0,0,.2-.06l1.33-.83h0a.37.37,0,0,0,.32-.18.36.36,0,0,0,0-.36A38.25,38.25,0,0,0,727.49,55,.38.38,0,0,0,727,55l-1.42,1a.42.42,0,0,0-.16.27.38.38,0,0,0,.1.29,30,30,0,0,1,5,7.57A.43.43,0,0,0,730.73,64.31Z"/><path d="M724.65,42.88a.41.41,0,0,0-.23-.2l-1.69-.56a.36.36,0,0,0-.46.21,53.47,53.47,0,0,1-8.83,14.93.39.39,0,0,0,0,.5L714.54,59a.39.39,0,0,0,.28.12.4.4,0,0,0,.27-.12,32.08,32.08,0,0,0,3.58-4.56V72a.38.38,0,0,0,.38.37h1.72a.38.38,0,0,0,.37-.37V50.46l1.62-3.24,1.88-4A.37.37,0,0,0,724.65,42.88Z"/><path d="M340.62,126q-2.82,10.71-8.84,10.71a13.09,13.09,0,0,1-9-5.34,31.58,31.58,0,0,1-6.95-14.72H301.59v13.9q6.8-1.44,14.3-3.76l.46,4.87a191.68,191.68,0,0,1-19.79,4.72l-1.47-4.72a2.23,2.23,0,0,0,1.5-2.27V90.72h39.14v15h-16a33.11,33.11,0,0,0,.37,6.13H339v4.66H321a25.06,25.06,0,0,0,5,10.69c2.35,2.82,4.24,4.27,5.66,4.27a2.32,2.32,0,0,0,1.35-.4,8.84,8.84,0,0,0,1.61-2.83,26.36,26.36,0,0,0,1.7-5.2Zm-9.86-24.84V95.47H301.59v5.65Zm-15.57,10.71c-.26-1.84-.45-3.9-.57-6.24h-13v6.24Z"/><path d="M378.3,125.59a202.47,202.47,0,0,1-24.1,9.21l-1.83-4.35,2.78-.85V103.77h5v24a31.18,31.18,0,0,0,4.21-1.44V95.91H353.76V91.42h24.09v4.49h-8.46v11.31h6.87v4.46h-6.87v12.69c3-1.13,5.65-2.29,8.05-3.47Zm24.3,7.4-3,3.93a44.5,44.5,0,0,1-10.07-8.87,41.62,41.62,0,0,1-12.81,8.9l-3-4A34.54,34.54,0,0,0,386.85,124a36.08,36.08,0,0,1-4.2-10.11l4.35-2a35.51,35.51,0,0,0,2.72,7.35,51.65,51.65,0,0,0,3.7-17.44h-6.86a105.88,105.88,0,0,1-5.69,13.2l-3.82-3.2a76.64,76.64,0,0,0,7.46-22.78l4.83.88a60.07,60.07,0,0,1-1.54,7.38h13.76v4.55h-3.37a57.19,57.19,0,0,1-5.69,22.38A33.56,33.56,0,0,0,402.6,133Z"/><path d="M463.94,121.56H460.2v6.81H442.85v3.33a3.72,3.72,0,0,1-1,2.66,4.16,4.16,0,0,1-2.34,1.3c-.88,0-3.56.2-8,.2l-1.44-4.07,7.18-.14a.84.84,0,0,0,.59-.34.83.83,0,0,0,.31-.65v-2.29H420.47v-3.59h17.66v-3.22H417.19v-3.62h20.94v-2.83H420.47v-3.7h17.66v-3H421.4V98.5h16.73V95.67H417.64V91.88h20.49v-3h4.72v3h20.44v3.7H442.85v2.83h17v10h-17v2.82h17.33v6.53h3.73Zm-25.78-16.51v-3.11H426.23v3.11Zm16.67,0v-3.11h-12v3.11Zm.65,12.89v-2.83H442.85v2.83Zm0,6.84v-3.22H442.85v3.22Z"/><path d="M524.91,110.4,523,114.8a76,76,0,0,1-21.88-5.65,100.06,100.06,0,0,1-21.87,5.65l-1.95-4.15a93.26,93.26,0,0,0,19-4.32,42.07,42.07,0,0,1-8.76-6.53,47.37,47.37,0,0,1-7,4.21l-2.82-3.53a57.75,57.75,0,0,0,15.46-11.11l4.29,1.72A13.36,13.36,0,0,1,496,92.73h23v4.35a84.49,84.49,0,0,1-12.66,9.25A76.22,76.22,0,0,0,524.91,110.4Zm-4,6.19c-.31,6.21-.65,10.65-1.08,13.36a7.59,7.59,0,0,1-2.6,5.35,10.86,10.86,0,0,1-6,1.32h-4.38l-1.3-4.49h3.79a20.18,20.18,0,0,0,4.46-.25,1.89,1.89,0,0,0,1-.82,17.36,17.36,0,0,0,.77-4.1c.28-2.35.45-4.3.48-5.82H501.23a18.87,18.87,0,0,1-7.38,10.31A32.11,32.11,0,0,1,480,137.1l-2.26-4.4c9.87-1.53,16.05-5.37,18.6-11.48H480.88V116.7h16.67c.26-1.84.45-3.59.57-5.26h4.66c-.15,2.36-.32,4.11-.51,5.26ZM512.42,97H491.31l-.37.25a40.58,40.58,0,0,0,10.31,6.84A63.85,63.85,0,0,0,512.39,97Z"/><path d="M551.71,120.67A50.81,50.81,0,0,1,545,135.31l-3.81-2.83a56,56,0,0,0,6.24-13.62Zm31.09-4.87H546.59V96.9h10.63a33.25,33.25,0,0,0-7.29-5l3.48-3.22a43.36,43.36,0,0,1,7.94,5.65l-2.63,2.58h11.7l-2.83-2.6a38.3,38.3,0,0,0,7.95-5.66l3.58,3.08a45.12,45.12,0,0,1-6.81,5.18h10.4Zm-4.66-4.66v-9.58H551.4v9.58Zm0,17.13a11.33,11.33,0,0,1-2.1,5.65,4.86,4.86,0,0,1-3.59,1.61H558.72c-3,0-4.52-1.69-4.52-5.09V118.72h4.72v11.5a.86.86,0,0,0,.31.59.66.66,0,0,0,.56.31h11.59c1.22,0,1.92-1.49,2.09-4.49Zm-6.34-2.83-4.21,2.15a44.56,44.56,0,0,0-5.65-8.48L566,117a52.08,52.08,0,0,1,5.6,8.71Zm16.28,6.84-4.15,2.46a62.53,62.53,0,0,0-6.87-13.85l4.21-2.4a75.83,75.83,0,0,1,6.62,13.88Z"/><path d="M650.7,114.46H634c-.76.48-2.82,1.58-6,3.33h17.64v18.6h-4.66V134H617v2.26h-4.53V123.14c-2.17.67-4.55,1.3-7.06,1.86l-2.07-4a115.13,115.13,0,0,0,22.42-6.59H604v-3.79h18.69v-3.08h-15v-3.45h14.95v-1.92h4.58v1.92h11v2.63c1.64-1.33,3.39-2.82,5.23-4.55l4,1.84a50.25,50.25,0,0,1-7.8,6.61h11Zm-2.46-13.74h-41.8V90.24h41.8Zm-29.31-3.47V93.83h-7.8v3.42ZM641,124v-2.63h-22.1l-1.78.65v2Zm0,6.38v-2.82H617.09v2.82Zm-9.52-33.09V93.83h-7.72v3.42Zm5.65,10.34h-9.92v3.08h5.48A46.82,46.82,0,0,0,637.1,107.59Zm6.5-10.34V93.83H636v3.42Z"/></svg>